<svg xmlns="http://www.w3.org/2000/svg" viewBox="0 0 1920 1080">
  <defs>
    <clipPath id="a">
      <path fill="none" d="M-16.16-4.02h1967.93v1088.84H-16.16z" />
    </clipPath>
  </defs>
  <g fill="none" clip-path="url(#a)">
    <path fill="#feffff" d="M-7.88-4.02h1943.65v1108.43H-7.88z" />
    <path fill="#deebff" d="M-191.38-51.61h380.73v380.73h-380.73z" opacity=".1" />
    <path fill="#feffff" d="m189.39 54.53.01 274.59H30.86L189.39 54.53z" opacity=".2" />
    <path fill="#2684ff"
      d="M1331.73 708.69h1514.34v380.73H1331.73zM189.4-51.61h380.73v380.73H189.4z" opacity=".1" />
    <path fill="#fff" d="M189.4 54.53v274.59h158.54L189.4 54.53z" />
    <path fill="#feffff"
      d="M714.52 961.64h-1.73s-.67-1.7-3.24-2.01h-1.96c-2.97.25-6.14 1.33-6.14 1.33s-4.86 1.38-8.09 1.38h-6.48c-4.03.68-6.46 3.43-6.46 3.43s-3.25 1.38-5.68.7l-2.43-.7-3.23.7h-4.06s-.8.68-4.03.68h-3.26l-6.46 3.45-1.63 2.75v2.19c-.59.09-1.28.1-2.07-.12-1.05-.29-2.85-.59-4.56-.84l-3.09-3.29s-1.63-1.38-4.05-2.06l-2.43-.68-2.91-.36-2.39-1.02-3.25-2.06-3.23-1.38-4.86-.68-4.06-1.38s-1.6 0-4.03-.68l-2.43-.68s-2.43 2.75-5.68 2.06c-3.23-.7 1.63-.7-3.23-.7h-4.86s-.67-1.7-3.24-2.01h-1.96c-2.97.25-6.14 1.33-6.14 1.33s-4.86 1.38-8.09 1.38h-6.48c-4.03.68-6.46 3.43-6.46 3.43s-3.25 1.38-5.68.7l-2.43-.7-3.23.7h-4.06s-.28.22-1.12.41c-.62.14-1.54.27-2.92.27h-3.25l-5.76 3.07-1.99-1.69-3.23-1.38-3.25-2.06-3.23-1.38-4.86-.68-4.06-1.38s-1.6 0-4.03-.68l-2.43-.68s-2.43 2.75-5.68 2.06c-3.23-.7 1.63-.7-3.23-.7h-4.86s-.8-2.06-4.06-2.06-7.29 1.38-7.29 1.38-4.86 1.38-8.09 1.38h-6.48c-4.03.68-6.46 3.43-6.46 3.43s-3.25 1.38-5.68.7l-2.43-.7-3.23.7h-4.06s-.8.68-4.03.68h-3.26l-6.46 3.45-1.63 2.75v2.19c-.59.09-1.28.1-2.07-.12-1.05-.29-2.85-.59-4.56-.84l-3.09-3.29s-1.63-1.38-4.05-2.06l-2.43-.68-2.91-.36-2.39-1.02-3.25-2.06-3.23-1.38-4.86-.68-4.06-1.38s-1.6 0-4.03-.68l-2.43-.68s-2.43 2.75-5.68 2.06c-3.23-.7 1.63-.7-3.23-.7h-4.86s-.8-2.06-4.06-2.06-7.29 1.38-7.29 1.38-4.86 1.38-8.09 1.38h-6.48c-4.03.68-6.46 3.43-6.46 3.43s-3.26 1.38-5.68.7l-2.43-.7-3.23.7h-4.06s-.8.68-4.03.68h-3.25l-6.46 3.45-1.63 2.75v2.75l-3.23.7-3.25-2.06-3.23-3.45s-1.63-1.38-4.05-2.06l-2.43-.68-5.66-.7-4.06 2.06-.8 2.76-1.63 2.75s-1.6 1.38-4.03.68l-2.43-.68-3.26-.68s-4.03-2.76-6.46-2.76h-2.43l-4.86.7-5.68 3.43-4.86 2.77-4.04 2.06-3.25-2.06-4.86-1.38-4.03.68-4.06 2.76-3.23.68-4.86-.68h-3.25c-4.86-.7-6.46-.7-8.89 0l-2.43.68-2.43 3.45-3.26 1.36-2.43 3.45c-4.03-3.45-1.07-2.46-2.85-2.71-1.06-.14-1.46-.39-1.65-.64v167.98h550.72l85.45-.3-111.17-192.55Z" />
    <path fill="#b2d4ff"
      d="M714.52 961.64h-1.73s-.67-1.7-3.24-2.01h-1.96c-2.97.25-6.14 1.33-6.14 1.33s-4.86 1.38-8.09 1.38h-6.48c-4.03.68-6.46 3.43-6.46 3.43s-3.25 1.38-5.68.7l-2.43-.7-3.23.7h-4.06s-.8.68-4.03.68h-3.26l-6.46 3.45-1.63 2.75v2.19c-.59.09-1.28.1-2.07-.12-1.05-.29-2.85-.59-4.56-.84l-3.09-3.29s-1.63-1.38-4.05-2.06l-2.43-.68-2.91-.36-2.39-1.02-3.25-2.06-3.23-1.38-4.86-.68-4.06-1.38s-1.6 0-4.03-.68l-2.43-.68s-2.43 2.75-5.68 2.06c-3.23-.7 1.63-.7-3.23-.7h-4.86s-.67-1.7-3.24-2.01h-1.96c-2.97.25-6.14 1.33-6.14 1.33s-4.86 1.38-8.09 1.38h-6.48c-4.03.68-6.46 3.43-6.46 3.43s-3.25 1.38-5.68.7l-2.43-.7-3.23.7h-4.06s-.28.22-1.12.41c-.62.14-1.54.27-2.92.27h-3.25l-5.76 3.07-1.99-1.69-3.23-1.38-3.25-2.06-3.23-1.38-4.86-.68-4.06-1.38s-1.6 0-4.03-.68l-2.43-.68s-2.43 2.75-5.68 2.06c-3.23-.7 1.63-.7-3.23-.7h-4.86s-.8-2.06-4.06-2.06-7.29 1.38-7.29 1.38-4.86 1.38-8.09 1.38h-6.48c-4.03.68-6.46 3.43-6.46 3.43s-3.25 1.38-5.68.7l-2.43-.7-3.23.7h-4.06s-.8.68-4.03.68h-3.26l-6.46 3.45-1.63 2.75v2.19c-.59.09-1.28.1-2.07-.12-1.05-.29-2.85-.59-4.56-.84l-3.09-3.29s-1.63-1.38-4.05-2.06l-2.43-.68-2.91-.36-2.39-1.02-3.25-2.06-3.23-1.38-4.86-.68-4.06-1.38s-1.6 0-4.03-.68l-2.43-.68s-2.43 2.75-5.68 2.06c-3.23-.7 1.63-.7-3.23-.7h-4.86s-.8-2.06-4.06-2.06-7.29 1.38-7.29 1.38-4.86 1.38-8.09 1.38h-6.48c-4.03.68-6.46 3.43-6.46 3.43s-3.26 1.38-5.68.7l-2.43-.7-3.23.7h-4.06s-.8.68-4.03.68h-3.25l-6.46 3.45-1.63 2.75v2.75l-3.23.7-3.25-2.06-3.23-3.45s-1.63-1.38-4.05-2.06l-2.43-.68-5.66-.7-4.06 2.06-.8 2.76-1.63 2.75s-1.6 1.38-4.03.68l-2.43-.68-3.26-.68s-4.03-2.76-6.46-2.76h-2.43l-4.86.7-5.68 3.43-4.86 2.77-4.04 2.06-3.25-2.06-4.86-1.38-4.03.68-4.06 2.76-3.23.68-4.86-.68h-3.25c-4.86-.7-6.46-.7-8.89 0l-2.43.68-2.43 3.45-3.26 1.36-2.43 3.45c-4.03-3.45-1.07-2.46-2.85-2.71-1.06-.14-1.46-.39-1.65-.64v167.98h550.72l85.45-.3-111.17-192.55Z"
      opacity=".05" />
    <path fill="#deebff" d="m950.86 100.48-74.85 43.21 74.85 43.21v-86.42z" opacity=".2" />
    <path fill="#b2d4ff" d="m951.03 100.47 203.55-117.52" />
    <path fill="#2684ff" d="m1195.42 328.2 136.25 78.66V328.2h-136.25z" opacity=".1" />
    <path fill="#b2d4ff" d="M1331.67 328.16h380.73v380.73h-380.73z" opacity=".05" />
    <path fill="#b2d4ff" d="M1712.31 328.16h380.73v380.73h-380.73z" opacity=".05" />
    <path fill="#fff" d="M950.87-52.53h380.9V328.2h-380.9z" />
    <path fill="#deebff" d="m1331.67 406.86 380.73 219.82V328.16h-380.73v78.7z" opacity=".2" />
    <path fill="#2684ff" d="m1215.99-52.53-265.13 153v86.63l244.5 141.1h136.41V-52.53h-115.78z"
      opacity=".1" />
    <path fill="#deebff"
      d="M950.99 708.65h380.73v380.73H950.99zM-563.51 709.85H950.83v380.73H-563.51z" opacity=".1" />
    <path fill="#feffff"
      d="M1712.4 649.86c-3.05-.52-6.93-.94-6.93-.94l-4.35-2.95-3.47-2.95-3.47-1.48-3.49-2.22-3.47-1.48-5.22-.73-4.35-1.48s-1.72 0-4.33-.73l-2.61-.73s-2.61 2.95-6.1 2.22c-3.47-.75 1.75-.75-3.47-.75h-5.21s-.86-2.22-4.35-2.22-7.82 1.48-7.82 1.48-5.22 1.48-8.68 1.48h-6.96c-4.33.73-6.94 3.68-6.94 3.68s-3.49 1.48-6.1.75l-2.61-.75-3.47.75h-4.35s-.86.73-4.33.73h-3.49l-6.94 3.7-1.75 2.95v2.35c-.63.1-1.37.11-2.22-.13-1.13-.32-3.06-.64-4.9-.9l-3.32-3.53s-1.74-1.48-4.35-2.22l-2.61-.73-3.12-.39-2.56-1.1-3.49-2.22-3.47-1.48-5.22-.73-4.35-1.48s-1.72 0-4.33-.73l-2.61-.73s-2.61 2.95-6.1 2.22c-3.47-.75 1.75-.75-3.47-.75h-5.21s-.86-2.22-4.35-2.22-7.82 1.48-7.82 1.48-5.22 1.48-8.68 1.48H1499c-4.33.73-6.94 3.68-6.94 3.68s-3.49 1.48-6.1.75l-2.61-.75-3.47.75h-4.35s-.86.73-4.33.73h-3.49l-6.94 3.7-1.75 2.95v2.95l-3.47.75-3.49-2.22-3.47-3.7s-1.74-1.48-4.35-2.22l-2.61-.73-6.08-.75-4.35 2.22-.86 2.97-1.75 2.95s-1.72 1.48-4.33.73l-2.61-.73-3.49-.73s-4.33-2.97-6.94-2.97h-2.61l-5.21.75-6.1 3.68-5.21 2.97-4.33 2.22-3.49-2.22-5.21-1.48-4.33.73-4.35 2.97-3.47.73-5.21-.73h-3.49c-5.21-.75-6.94-.75-9.54 0l-2.61.73-2.61 3.7-3.49 1.46-2.61 3.7c-4.33-3.7-1.15-2.64-3.06-2.91-2.71-.37-1.42-1.37-2.59-1.56v47.43h380.73v-59.03Z" />
  </g>
  <path fill="#2684ff" d="M570.11 329.12h380.73v380.73H570.11z" opacity=".1" />
  <path fill="#feffff" d="M-246.5 329.12h816.61v380.73H-246.5z" />
  <path fill="#2684ff" d="M-408.73 1090.58h1196.3L567.75 709.85h-756.67l-219.81 380.73z"
    opacity=".1" />
  <path fill="#deebff" d="M347.94 329.12H30.9l-219.82 380.73h756.67L347.94 329.12z" opacity=".2" />
  <path fill="#2684ff" d="M1854.9 708.89h119.83V328.16h-262.42v298.4l142.59 82.33z" opacity=".1" />
  <path fill="#feffff"
    d="m1960.47 645.98-3.47-2.95-3.47-1.48-3.49-2.22-3.47-1.48-5.22-.73-4.35-1.48s-1.72 0-4.33-.73l-2.61-.73s-2.61 2.95-6.1 2.22c-3.47-.75 1.75-.75-3.47-.75h-5.21s-.86-2.22-4.35-2.22-7.82 1.48-7.82 1.48-5.22 1.48-8.68 1.48h-6.96c-4.33.73-6.94 3.68-6.94 3.68s-3.49 1.48-6.1.75l-2.61-.75-3.47.75H1864s-.86.73-4.33.73h-3.49l-6.94 3.7-1.75 2.95v2.35c-.63.1-1.37.11-2.22-.13-1.12-.32-3.06-.64-4.9-.9l-3.32-3.54s-1.74-1.48-4.35-2.22l-2.61-.73-3.12-.39-2.56-1.1-3.49-2.22-3.47-1.48-5.22-.73-4.35-1.48s-1.72 0-4.33-.73l-2.61-.73s-2.61 2.95-6.1 2.22c-3.47-.75 1.75-.75-3.47-.75h-5.21s-.86-2.22-4.35-2.22-7.82 1.48-7.82 1.48-5.22 1.48-8.68 1.48h-6.96c-4.33.73-6.94 3.68-6.94 3.68s-3.49 1.48-6.1.75l-2.61-.75-3.47.75H1737l117.91 68.08h116.84v-59.03c-3.05-.52-6.93-.94-6.93-.94l-4.35-2.95ZM189.34 36.42c3.05.52 6.93.94 6.93.94l4.35 2.95 3.47 2.95 3.47 1.48 3.49 2.22 3.47 1.48 5.22.73 4.35 1.48s1.72 0 4.33.73l2.61.73s2.61-2.95 6.1-2.22c3.47.75-1.75.75 3.47.75h5.22s.86 2.22 4.35 2.22 7.82-1.48 7.82-1.48 5.22-1.48 8.69-1.48h6.96c4.33-.73 6.94-3.68 6.94-3.68s3.49-1.48 6.1-.75l2.61.75 3.47-.75h4.35s.86-.73 4.33-.73h3.49l6.94-3.7 1.75-2.95v-2.35c.63-.1 1.37-.11 2.22.13 1.13.32 3.06.64 4.9.9l3.32 3.53s1.75 1.48 4.35 2.22l2.61.73 3.12.39 2.56 1.1 3.49 2.22 3.47 1.48 5.22.73 4.35 1.48s1.72 0 4.33.73l2.61.73s2.61-2.95 6.1-2.22c3.47.75-1.75.75 3.47.75h5.22s.86 2.22 4.35 2.22 7.82-1.48 7.82-1.48 5.22-1.48 8.69-1.48h6.96c4.33-.73 6.94-3.68 6.94-3.68s3.49-1.48 6.1-.75l2.61.75 3.47-.75h4.35s.86-.73 4.33-.73h3.49l6.94-3.7 1.75-2.95v-2.95l3.47-.75 3.49 2.22 3.47 3.7s1.75 1.48 4.35 2.22l2.61.73 6.08.75 4.35-2.22.86-2.97 1.75-2.95s1.72-1.48 4.33-.73l2.61.73 3.49.73s4.33 2.97 6.94 2.97h2.61l5.22-.75 6.1-3.68 5.22-2.97 4.33-2.22 3.49 2.22 5.22 1.48 4.33-.73 4.35-2.97 3.47-.73 5.22.73h3.49c5.22.75 6.94.75 9.55 0l2.61-.73 2.61-3.7 3.49-1.46 2.61-3.7c4.33 3.7 1.15 2.64 3.06 2.91 2.71.37 1.42 1.37 2.59 1.56V-22.6H189.34v59.03Z" />
  <g data-name="illo elements">
    <g fill="#2684ff">
      <path d="M636.78 186.38v-18.93h18.93v18.93z" opacity=".1" />
      <path d="M655.71 205.31v-18.93h18.93v18.93z" />
      <path d="M674.64 186.38v-18.93h18.93v18.93z" opacity=".1" />
      <path d="M693.54 167.47v-18.93h18.93v18.93z" opacity=".1" />
    </g>
    <path fill="#57d9a3" d="M1533.04 468.64v-18.93h18.93v18.93z" />
    <path fill="#2684ff" d="M1551.96 449.69v-18.93h18.93v18.93z" />
    <path fill="#2684ff" d="M1570.9 468.64v-18.93h18.93v18.93z" opacity=".1" />
    <path fill="#fff" d="M1570.89 430.76v-18.93h18.93v18.93z" />
    <path fill="#57d9a3" d="M425.81 852.86v-18.93h18.93v18.93z" />
    <path fill="#2684ff" d="M444.74 871.79v-18.93h18.93v18.93z" />
    <path fill="#feffff" d="M463.67 852.86v-18.93h18.93v18.93zM425.81 890.74v-18.93h18.93v18.93z" />
  </g>
</svg>