<svg width="500" height="373" viewBox="0 0 500 373" fill="none" xmlns="http://www.w3.org/2000/svg">
<path d="M500 327.446H0V327.696H500V327.446Z" fill="#EBEBEB"/>
<path d="M85.581 336.97H52.459V337.22H85.581V336.97Z" fill="#EBEBEB"/>
<path d="M179.833 334.256H145.333V334.506H179.833V334.256Z" fill="#EBEBEB"/>
<path d="M131.5 341.798H76.082V342.048H131.5V341.798Z" fill="#EBEBEB"/>
<path d="M448.833 342.715H405.64V342.965H448.833V342.715Z" fill="#EBEBEB"/>
<path d="M393.333 336.465H370.43V336.715H393.333V336.465Z" fill="#EBEBEB"/>
<path d="M289.309 340.479H195.633V340.729H289.309V340.479Z" fill="#EBEBEB"/>
<path d="M202.737 324.347H148.597V327.447H202.737V324.347Z" fill="#E0E0E0"/>
<path d="M170.802 256.64L155.841 324.347H195.493L180.532 256.64C179.381 251.43 171.953 251.43 170.802 256.64Z" fill="#E0E0E0"/>
<path d="M183.506 270.082H167.828L164.038 287.239H187.296L183.506 270.082Z" fill="#F5F5F5"/>
<path d="M187.959 290.259H163.375L161.453 298.944H189.881L187.959 290.259Z" fill="#F5F5F5"/>
<path d="M72.517 327.446H80.564L104.24 195.048H96.192L72.517 327.446Z" fill="#E0E0E0"/>
<path d="M283.155 327.446H291.202L314.878 195.048H306.831L283.155 327.446Z" fill="#E0E0E0"/>
<path d="M338.554 201.493H72.517V249.609H338.554V201.493Z" fill="#EBEBEB"/>
<path d="M101.36 247.487H73.781L89.078 203.616H116.657L101.36 247.487Z" fill="#FAFAFA"/>
<path d="M156.518 247.487H128.939L144.236 203.616H171.815L156.518 247.487Z" fill="#FAFAFA"/>
<path d="M211.676 247.487H184.097L199.394 203.616H226.973L211.676 247.487Z" fill="#FAFAFA"/>
<path d="M266.834 247.487H239.255L254.552 203.616H282.131L266.834 247.487Z" fill="#FAFAFA"/>
<path d="M321.992 247.487H294.413L309.71 203.616H337.289L321.992 247.487Z" fill="#FAFAFA"/>
<path d="M127.915 327.446H119.868L96.192 195.048H104.24L127.915 327.446Z" fill="#E0E0E0"/>
<path d="M338.554 327.446H330.507L306.831 195.048H314.878L338.554 327.446Z" fill="#E0E0E0"/>
<path d="M447 323.381H376V327.446H447V323.381Z" fill="#E0E0E0"/>
<path d="M404.653 236.702L385.5 323.382H437.5L418.347 236.702C416.727 229.369 406.273 229.369 404.653 236.702Z" fill="#E0E0E0"/>
<path d="M421.78 252.218H401.22L396.25 274.718H426.75L421.78 252.218Z" fill="#F5F5F5"/>
<path d="M427.62 278.678H395.38L392.86 290.068H430.14L427.62 278.678Z" fill="#F5F5F5"/>
<path d="M463 186.947V216.248C463 218.211 461.092 219.609 459.22 219.015L36.252 84.971C35.046 84.589 34.226 83.469 34.226 82.204V52.903C34.226 50.94 36.134 49.542 38.006 50.136L460.974 184.181C462.18 184.562 463 185.682 463 186.947Z" fill="#EBEBEB"/>
<path d="M429.714 207.431L453 214.811L440.084 179.793L416.798 172.414L429.714 207.431Z" fill="#FAFAFA"/>
<path d="M383.143 192.672L406.428 200.051L393.512 165.034L370.227 157.654L383.143 192.672Z" fill="#FAFAFA"/>
<path d="M336.571 177.913L359.857 185.292L346.941 150.275L323.655 142.895L336.571 177.913Z" fill="#FAFAFA"/>
<path d="M289.999 163.153L313.285 170.533L300.369 135.516L277.083 128.136L289.999 163.153Z" fill="#FAFAFA"/>
<path d="M243.428 148.394L266.714 155.774L253.798 120.756L230.512 113.377L243.428 148.394Z" fill="#FAFAFA"/>
<path d="M196.856 133.635L220.142 141.015L207.226 105.997L183.94 98.618L196.856 133.635Z" fill="#FAFAFA"/>
<path d="M150.285 118.876L173.57 126.255L160.654 91.238L137.369 83.858L150.285 118.876Z" fill="#FAFAFA"/>
<path d="M103.713 104.116L126.999 111.496L114.083 76.479L90.797 69.099L103.713 104.116Z" fill="#FAFAFA"/>
<path d="M57.141 89.357L80.427 96.737L67.511 61.719L44.226 54.34L57.141 89.357Z" fill="#FAFAFA"/>
<path d="M250 372.609C357.082 372.609 443.889 367.54 443.889 361.286C443.889 355.032 357.082 349.963 250 349.963C142.918 349.963 56.111 355.032 56.111 361.286C56.111 367.54 142.918 372.609 250 372.609Z" fill="#F5F5F5"/>
<path d="M326.47 352.62H314.938V5.16801C314.938 3.29301 326.47 3.29301 326.47 5.16801V352.62Z" fill="#263238"/>
<path d="M326.47 135.644L314.939 137.968V122.018H326.47V135.644Z" fill="black"/>
<path d="M397.729 131.646L235.931 119.612C229.349 119.122 224.365 113.337 224.854 106.755L231.612 15.895C232.102 9.313 237.887 4.329 244.469 4.818L406.267 16.852C412.849 17.342 417.833 23.127 417.344 29.709L410.586 120.569C410.097 127.151 404.311 132.136 397.729 131.646Z" fill="white"/>
<path d="M398.632 133.179C398.295 133.179 397.957 133.167 397.618 133.142L235.821 121.109C232.238 120.842 228.966 119.187 226.606 116.448C224.246 113.709 223.093 110.227 223.359 106.644L230.117 15.785C230.384 12.202 232.039 8.93001 234.778 6.56901C237.517 4.21001 240.998 3.05001 244.582 3.32301L406.379 15.357C409.962 15.624 413.234 17.279 415.594 20.017C417.954 22.756 419.107 26.238 418.841 29.821L412.083 120.681C411.816 124.263 410.161 127.536 407.422 129.896C404.942 132.032 401.853 133.179 398.632 133.179ZM243.573 6.28501C241.069 6.28501 238.666 7.17801 236.735 8.84201C234.603 10.679 233.315 13.223 233.109 16.007L226.351 106.866C225.922 112.64 230.269 117.687 236.043 118.116L397.84 130.149C400.624 130.355 403.331 129.459 405.463 127.623C407.595 125.786 408.883 123.241 409.089 120.458L415.847 29.598C416.276 23.825 411.929 18.778 406.155 18.349L244.358 6.31501C244.096 6.29501 243.834 6.28501 243.573 6.28501Z" fill="#3CD278"/>
<path d="M287.445 53.094L267.118 51.582L267.801 42.405L289.925 19.755L299.65 20.479L297.815 45.162L302.856 45.537L302.212 54.193L297.171 53.818L296.613 61.325L286.888 60.601L287.445 53.094ZM288.089 44.438L289.029 31.799L277.348 43.639L288.089 44.438Z" fill="#3CD278"/>
<path d="M306.637 41.713C307.205 34.079 308.976 28.839 311.952 25.994C314.927 23.147 319.227 21.934 324.853 22.352C327.556 22.553 329.75 23.052 331.435 23.847C333.121 24.643 334.472 25.615 335.488 26.765C336.505 27.914 337.284 29.103 337.826 30.328C338.368 31.554 338.773 32.965 339.039 34.563C339.565 37.616 339.707 40.766 339.466 44.016C338.924 51.303 337.295 56.544 334.578 59.74C331.862 62.936 327.489 64.308 321.462 63.86C318.083 63.609 315.393 62.868 313.391 61.635C311.39 60.403 309.799 58.696 308.621 56.514C307.762 54.962 307.16 52.884 306.812 50.278C306.465 47.674 306.406 44.819 306.637 41.713ZM317.703 42.563C317.323 47.677 317.514 51.205 318.28 53.144C319.045 55.082 320.285 56.116 322.002 56.244C323.134 56.328 324.145 56.004 325.036 55.27C325.926 54.538 326.631 53.329 327.152 51.641C327.672 49.953 328.067 47.292 328.338 43.658C328.734 38.325 328.55 34.708 327.782 32.805C327.014 30.902 325.727 29.884 323.918 29.749C322.073 29.611 320.671 30.448 319.71 32.259C318.748 34.069 318.08 37.505 317.703 42.563Z" fill="#3CD278"/>
<path d="M355.498 37.001L345.091 34.325C346.218 31.03 348.094 28.581 350.72 26.975C353.346 25.371 356.942 24.739 361.508 25.079C366.749 25.469 370.466 26.728 372.659 28.855C374.85 30.984 375.837 33.527 375.617 36.485C375.488 38.221 374.896 39.756 373.842 41.091C372.788 42.427 371.263 43.554 369.266 44.47C370.789 44.969 371.944 45.504 372.727 46.076C373.999 46.997 374.956 48.156 375.595 49.555C376.235 50.951 376.485 52.581 376.346 54.445C376.172 56.783 375.393 58.979 374.011 61.033C372.628 63.089 370.743 64.61 368.355 65.599C365.968 66.587 362.901 66.942 359.158 66.663C355.505 66.392 352.657 65.748 350.611 64.733C348.565 63.717 346.923 62.334 345.686 60.579C344.449 58.825 343.557 56.67 343.014 54.114L354.273 53.464C354.545 55.742 355.109 57.351 355.966 58.286C356.823 59.222 357.965 59.743 359.389 59.849C360.887 59.96 362.174 59.505 363.251 58.484C364.327 57.463 364.934 56.039 365.07 54.212C365.209 52.351 364.836 50.871 363.953 49.777C363.07 48.683 361.807 48.075 360.164 47.953C359.287 47.888 358.066 48.017 356.499 48.341L357.667 40.412C358.281 40.55 358.762 40.631 359.109 40.657C360.57 40.765 361.824 40.39 362.87 39.531C363.916 38.674 364.488 37.604 364.582 36.326C364.673 35.102 364.38 34.098 363.704 33.313C363.028 32.529 362.051 32.087 360.772 31.993C359.457 31.895 358.359 32.214 357.478 32.947C356.598 33.68 355.938 35.031 355.498 37.001Z" fill="#3CD278"/>
<path d="M272.07 68.861L287.59 70.015L287.293 74.017L277.577 73.294L277.355 76.273L286.368 76.944L286.084 80.766L277.071 80.095L276.796 83.79L286.794 84.534L286.479 88.778L270.677 87.602L272.07 68.861Z" fill="#3CD278"/>
<path d="M289.674 89.016L291.068 70.274L300.72 70.992C302.51 71.126 303.866 71.381 304.789 71.759C305.712 72.136 306.432 72.761 306.95 73.635C307.468 74.509 307.683 75.543 307.594 76.736C307.516 77.776 307.228 78.657 306.728 79.379C306.229 80.1 305.573 80.666 304.763 81.076C304.246 81.34 303.55 81.535 302.674 81.667C303.347 81.949 303.832 82.217 304.13 82.47C304.332 82.64 304.616 82.991 304.983 83.526C305.351 84.059 305.592 84.466 305.708 84.751L308.109 90.39L301.565 89.904L298.895 83.946C298.558 83.175 298.244 82.669 297.954 82.424C297.557 82.103 297.096 81.922 296.567 81.883L296.056 81.845L295.49 89.452L289.674 89.016ZM296.32 78.3L298.761 78.482C299.025 78.502 299.543 78.456 300.314 78.34C300.703 78.292 301.031 78.119 301.297 77.823C301.564 77.525 301.712 77.172 301.743 76.762C301.788 76.157 301.631 75.679 301.271 75.326C300.912 74.973 300.203 74.758 299.147 74.68L296.603 74.491L296.32 78.3Z" fill="#3CD278"/>
<path d="M310.04 90.53L311.434 71.788L321.085 72.506C322.875 72.64 324.231 72.895 325.155 73.273C326.078 73.65 326.799 74.275 327.317 75.149C327.835 76.023 328.049 77.057 327.961 78.25C327.884 79.29 327.595 80.171 327.095 80.893C326.595 81.614 325.94 82.18 325.13 82.59C324.613 82.854 323.917 83.049 323.041 83.181C323.714 83.463 324.199 83.731 324.497 83.984C324.699 84.155 324.983 84.505 325.35 85.04C325.718 85.573 325.958 85.98 326.075 86.265L328.476 91.904L321.932 91.418L319.263 85.46C318.926 84.69 318.612 84.183 318.322 83.938C317.926 83.617 317.464 83.436 316.935 83.397L316.424 83.359L315.859 90.966L310.04 90.53ZM316.685 79.815L319.127 79.997C319.391 80.017 319.909 79.971 320.68 79.855C321.069 79.807 321.397 79.634 321.663 79.338C321.93 79.04 322.078 78.687 322.109 78.278C322.154 77.672 321.997 77.195 321.637 76.841C321.278 76.488 320.569 76.273 319.513 76.195L316.969 76.006L316.685 79.815Z" fill="#3CD278"/>
<path d="M329.848 82.594C330.076 79.534 331.105 77.216 332.936 75.639C334.767 74.059 337.204 73.384 340.247 73.611C343.366 73.842 345.708 74.859 347.27 76.66C348.834 78.46 349.502 80.868 349.278 83.886C349.115 86.077 348.613 87.846 347.772 89.193C346.93 90.54 345.784 91.551 344.332 92.227C342.88 92.904 341.115 93.165 339.036 93.009C336.922 92.852 335.198 92.386 333.863 91.609C332.528 90.833 331.485 89.684 330.732 88.162C329.979 86.641 329.685 84.784 329.848 82.594ZM335.637 83.05C335.496 84.943 335.747 86.328 336.388 87.207C337.03 88.086 337.956 88.57 339.166 88.66C340.41 88.753 341.403 88.419 342.146 87.661C342.888 86.902 343.337 85.473 343.493 83.378C343.624 81.613 343.364 80.298 342.713 79.431C342.062 78.564 341.127 78.085 339.908 77.995C338.74 77.908 337.772 78.252 337.003 79.026C336.234 79.8 335.779 81.142 335.637 83.05Z" fill="#3CD278"/>
<path d="M351.768 93.634L353.161 74.892L362.813 75.61C364.603 75.744 365.959 75.999 366.882 76.377C367.805 76.754 368.526 77.379 369.043 78.253C369.561 79.127 369.776 80.161 369.687 81.354C369.609 82.394 369.321 83.275 368.821 83.997C368.322 84.718 367.666 85.284 366.856 85.694C366.338 85.958 365.642 86.153 364.767 86.285C365.44 86.567 365.925 86.835 366.223 87.088C366.424 87.259 366.709 87.609 367.076 88.144C367.444 88.677 367.685 89.084 367.801 89.369L370.202 95.008L363.658 94.522L360.988 88.564C360.652 87.794 360.337 87.287 360.047 87.042C359.651 86.721 359.189 86.54 358.66 86.501L358.149 86.463L357.584 94.07L351.768 93.634ZM358.414 82.918L360.855 83.1C361.119 83.12 361.637 83.074 362.409 82.958C362.798 82.91 363.126 82.737 363.391 82.441C363.658 82.143 363.806 81.79 363.837 81.38C363.882 80.775 363.725 80.297 363.365 79.944C363.006 79.591 362.297 79.376 361.24 79.298L358.696 79.109L358.414 82.918Z" fill="#3CD278"/>
<path d="M252.751 108.392L254.023 91.29L265.56 92.147L265.41 94.165L256.136 93.476L255.742 98.772L263.767 99.369L263.617 101.389L255.591 100.792L255.013 108.561L252.751 108.392Z" fill="#263238"/>
<path d="M267.158 101.088C267.369 98.249 268.297 96.084 269.94 94.591C271.584 93.099 273.611 92.443 276.022 92.622C277.601 92.739 278.996 93.222 280.207 94.071C281.419 94.919 282.306 96.043 282.871 97.441C283.435 98.839 283.654 100.394 283.527 102.105C283.398 103.839 282.933 105.366 282.131 106.681C281.329 107.998 280.26 108.961 278.925 109.569C277.59 110.177 276.179 110.426 274.694 110.316C273.084 110.196 271.674 109.7 270.465 108.829C269.256 107.957 268.374 106.824 267.821 105.43C267.267 104.036 267.046 102.589 267.158 101.088ZM269.488 101.296C269.335 103.357 269.768 105.023 270.788 106.29C271.808 107.558 273.154 108.254 274.826 108.379C276.529 108.505 277.975 108.011 279.165 106.896C280.354 105.781 281.031 104.123 281.195 101.921C281.299 100.529 281.153 99.296 280.761 98.223C280.367 97.15 279.739 96.293 278.875 95.655C278.012 95.016 277.016 94.654 275.889 94.57C274.287 94.451 272.867 94.899 271.631 95.914C270.394 96.929 269.68 98.724 269.488 101.296Z" fill="#263238"/>
<path d="M285.844 110.853L287.116 93.751L294.698 94.315C296.222 94.428 297.369 94.669 298.14 95.034C298.91 95.401 299.504 95.99 299.921 96.803C300.337 97.617 300.511 98.493 300.441 99.434C300.351 100.648 299.881 101.641 299.034 102.416C298.187 103.189 296.934 103.627 295.277 103.731C295.854 104.063 296.288 104.381 296.578 104.683C297.194 105.34 297.764 106.144 298.288 107.098L300.916 111.974L298.07 111.762L296.072 108.036C295.487 106.96 295.001 106.134 294.614 105.557C294.226 104.981 293.872 104.572 293.549 104.328C293.227 104.085 292.894 103.908 292.55 103.796C292.298 103.723 291.88 103.664 291.297 103.62L288.672 103.425L288.107 111.02L285.844 110.853ZM288.817 101.467L293.682 101.829C294.716 101.906 295.533 101.858 296.132 101.689C296.731 101.517 297.2 101.209 297.538 100.76C297.876 100.312 298.066 99.812 298.107 99.26C298.167 98.451 297.923 97.764 297.375 97.2C296.826 96.635 295.918 96.305 294.651 96.212L289.238 95.809L288.817 101.467Z" fill="#263238"/>
<path d="M302.968 112.126L304.24 95.024L310.656 95.502C311.963 95.599 312.997 95.851 313.761 96.255C314.524 96.661 315.103 97.239 315.497 97.991C315.89 98.744 316.058 99.512 315.999 100.299C315.945 101.03 315.695 101.703 315.25 102.318C314.806 102.934 314.168 103.412 313.338 103.749C314.349 104.129 315.106 104.705 315.608 105.476C316.11 106.249 316.323 107.133 316.25 108.128C316.19 108.93 315.966 109.66 315.577 110.324C315.187 110.987 314.73 111.486 314.205 111.823C313.679 112.159 313.035 112.394 312.27 112.53C311.505 112.664 310.579 112.691 309.49 112.61L302.968 112.126ZM305.382 110.278L309.639 110.594C310.37 110.649 310.885 110.659 311.185 110.626C311.713 110.571 312.16 110.447 312.526 110.257C312.892 110.065 313.204 109.77 313.46 109.37C313.716 108.972 313.865 108.498 313.906 107.954C313.953 107.317 313.831 106.751 313.539 106.256C313.247 105.761 312.819 105.398 312.254 105.162C311.689 104.93 310.862 104.772 309.773 104.691L305.819 104.397L305.382 110.278ZM305.969 102.38L309.667 102.654C310.67 102.729 311.394 102.716 311.839 102.616C312.427 102.487 312.882 102.237 313.203 101.862C313.524 101.486 313.707 100.999 313.751 100.4C313.793 99.834 313.694 99.323 313.455 98.871C313.214 98.419 312.848 98.096 312.354 97.898C311.86 97.701 310.999 97.556 309.77 97.464L306.352 97.21L305.969 102.38Z" fill="#263238"/>
<path d="M319.382 113.347L320.654 96.245L322.917 96.414L321.645 113.516L319.382 113.347Z" fill="#263238"/>
<path d="M325.634 113.812L326.906 96.71L332.797 97.149C334.127 97.248 335.135 97.406 335.823 97.621C336.786 97.92 337.592 98.391 338.24 99.032C339.086 99.862 339.687 100.886 340.046 102.105C340.406 103.324 340.528 104.696 340.415 106.219C340.319 107.519 340.081 108.658 339.703 109.639C339.326 110.62 338.874 111.42 338.351 112.042C337.828 112.665 337.27 113.143 336.678 113.478C336.086 113.814 335.384 114.048 334.573 114.185C333.761 114.319 332.839 114.348 331.804 114.271L325.634 113.812ZM328.047 111.963L331.698 112.234C332.826 112.318 333.718 112.278 334.375 112.115C335.032 111.954 335.565 111.696 335.975 111.344C336.552 110.847 337.023 110.156 337.39 109.273C337.757 108.39 337.989 107.303 338.085 106.011C338.218 104.223 338.026 102.825 337.511 101.822C336.995 100.819 336.329 100.122 335.514 99.732C334.924 99.454 333.957 99.264 332.612 99.164L329.02 98.897L328.047 111.963Z" fill="#263238"/>
<path d="M342.887 115.095L344.159 97.993L350.05 98.432C351.38 98.531 352.388 98.689 353.076 98.904C354.039 99.203 354.844 99.674 355.493 100.315C356.339 101.145 356.94 102.169 357.299 103.388C357.658 104.607 357.781 105.979 357.668 107.502C357.572 108.802 357.335 109.941 356.957 110.922C356.579 111.904 356.128 112.703 355.605 113.325C355.082 113.948 354.524 114.426 353.933 114.761C353.341 115.097 352.639 115.331 351.828 115.468C351.016 115.602 350.093 115.631 349.059 115.554L342.887 115.095ZM345.3 113.246L348.951 113.517C350.078 113.601 350.971 113.561 351.628 113.398C352.285 113.237 352.818 112.979 353.228 112.627C353.805 112.13 354.276 111.438 354.643 110.556C355.01 109.673 355.241 108.586 355.337 107.294C355.47 105.506 355.279 104.108 354.763 103.105C354.247 102.102 353.582 101.405 352.766 101.015C352.177 100.737 351.209 100.547 349.864 100.447L346.271 100.18L345.3 113.246Z" fill="#263238"/>
<path d="M360.186 116.382L361.458 99.28L373.823 100.2L373.673 102.218L363.571 101.466L363.181 106.704L372.642 107.408L372.493 109.415L363.032 108.711L362.599 114.532L373.098 115.313L372.948 117.331L360.186 116.382Z" fill="#263238"/>
<path d="M376.051 117.562L377.323 100.46L379.644 100.633L387.628 114.728L388.627 101.301L390.796 101.462L389.524 118.564L387.203 118.392L379.22 104.285L378.221 117.724L376.051 117.562Z" fill="#263238"/>
<path d="M169.922 109.937L170.252 111.898L170.632 113.984C170.905 115.377 171.172 116.776 171.487 118.161C172.095 120.934 172.804 123.673 173.602 126.327C174.003 127.654 174.435 128.96 174.912 130.222C175.37 131.493 175.861 132.738 176.404 133.914C177.484 136.279 178.713 138.438 180.071 140.144L177.333 138.348C177.975 138.673 178.587 138.943 179.621 138.879C180.624 138.831 181.973 138.456 183.355 137.773C184.758 137.11 186.214 136.18 187.652 135.117C188.37 134.584 189.095 134.025 189.798 133.431C190.157 133.14 190.508 132.839 190.854 132.535C191.195 132.25 191.578 131.898 191.846 131.684L192.384 131.254C193.989 129.971 196.329 130.233 197.612 131.838C198.522 132.977 198.652 134.49 198.078 135.729C197.784 136.36 197.576 136.831 197.309 137.357C197.046 137.864 196.777 138.365 196.495 138.86C195.92 139.84 195.309 140.807 194.631 141.744C193.28 143.622 191.7 145.411 189.77 147.058C188.81 147.883 187.721 148.637 186.536 149.337C185.352 150.037 184.033 150.662 182.558 151.091C181.093 151.529 179.494 151.823 177.824 151.844C176.155 151.868 174.466 151.593 172.865 151.13C171.941 150.862 171.143 150.37 170.513 149.73L170.126 149.334C167.369 146.513 165.298 143.461 163.633 140.373C161.942 137.289 160.616 134.156 159.503 131.007C158.364 127.864 157.492 124.691 156.733 121.509C156.37 119.914 156.024 118.32 155.748 116.706C155.608 115.9 155.469 115.092 155.351 114.275C155.234 113.43 155.134 112.689 155.025 111.7C154.575 107.584 157.546 103.882 161.662 103.431C165.626 102.997 169.205 105.737 169.867 109.616L169.922 109.937Z" fill="#263238"/>
<path d="M191.667 131.131C189.556 131.798 187.084 134.242 187.861 137.103C188.639 139.964 197.194 142.131 197.472 136.964C195 132.048 191.667 131.131 191.667 131.131Z" fill="white"/>
<path d="M190.545 133.92L191.455 132.531L200.795 130.006C200.795 130.006 202.157 135.956 195.407 138.222C194.929 138.382 194.402 138.319 193.955 138.086L191.266 136.684C190.256 136.157 189.92 134.873 190.545 133.92Z" fill="#B55B52"/>
<path d="M120.077 99.795C132.021 97.633 148.2 97.218 159.929 99.224C165.892 100.244 170.099 105.658 169.572 111.684C168.899 119.396 168.047 126.204 167.602 131.549C168.134 145.105 166.979 167.767 166.979 172.504C166.978 172.508 117.293 173.207 117.293 173.207C115.08 167.013 115.805 139.131 111.925 111.061C111.187 105.721 114.773 100.755 120.077 99.795Z" fill="#263238"/>
<path opacity="0.2" d="M145.593 172.567L144.601 172.442C147.424 150.19 144.627 112.912 144.598 112.538L145.595 112.462C145.624 112.836 148.428 150.216 145.593 172.567Z" fill="black"/>
<path d="M150.102 100.372C148.143 99.84 149.908 97.821 149.908 97.821C149.908 97.821 158.795 97.821 164.937 99.026C165.876 99.752 164.865 100.675 164.865 100.675C164.865 100.675 155.918 101.951 150.102 100.372Z" fill="#3CD273"/>
<path opacity="0.2" d="M147.294 97.518C147.294 97.518 150.241 103.438 146.295 108.819C149.421 108.841 152.3 110.819 152.3 110.819C152.3 110.819 153.709 105.744 149.737 98.028C149.302 97.299 147.294 97.518 147.294 97.518Z" fill="black"/>
<path d="M150.443 100.387C151.21 103.998 144.501 110.819 144.501 110.819C144.501 110.819 132.636 104.599 131.885 101.029L150.443 100.387Z" fill="#3CD273"/>
<path opacity="0.2" d="M119.358 117.415C120.661 119.93 119.075 130.464 114.369 135.645C114.056 131.07 113.672 126.283 113.167 121.404L119.358 117.415Z" fill="black"/>
<path d="M133.157 81.863L146.604 88.312C145.175 92.119 144.497 96.079 148.481 97.969C150.739 99.04 151.768 101.989 150.424 104.23C149.273 106.149 147.323 107.821 144.306 108.123C139.64 108.59 135.04 105.593 132.363 102.777C131.259 101.615 132.341 100.258 132.484 98.641C132.989 92.917 133.882 86.928 133.157 81.863Z" fill="#B55B52"/>
<path opacity="0.2" d="M139.348 83.148L146.599 88.308C146.183 89.404 145.837 90.511 145.654 91.578C142.677 92.553 137.947 89.955 137.869 87.363C137.83 86.07 139.045 83.769 139.348 83.148Z" fill="black"/>
<path d="M148.773 60.135C151.337 62.225 154.273 71.568 150.504 75.341C144.939 68.882 144.312 59.167 148.773 60.135Z" fill="#263238"/>
<path d="M129.436 70.951C130.452 78.923 130.64 83.644 134.957 87.453C141.449 93.183 151.102 88.78 152.491 80.644C153.742 73.321 151.871 61.514 143.818 58.911C135.884 56.346 128.42 62.98 129.436 70.951Z" fill="#B55B52"/>
<path d="M129.692 77.823C133.468 78.105 134.784 68.966 132.427 63.797C134.068 64.477 138.739 63.81 140.044 61.664C147.577 63.81 150.396 63.852 151.364 60.738C152.332 57.624 140.465 54.889 133.605 56.361C126.746 57.834 128.765 62.8 128.765 62.8C128.765 62.8 117.152 66.545 129.692 77.823Z" fill="#263238"/>
<path d="M126.935 78.44C128.084 80.25 129.822 81.372 131.37 81.743C133.698 82.3 134.504 79.96 133.557 77.611C132.705 75.497 130.467 72.66 128.275 73.155C126.114 73.643 125.621 76.37 126.935 78.44Z" fill="#B55B52"/>
<path d="M140.098 72.286C140.141 72.938 140.521 73.441 140.948 73.409C141.374 73.377 141.686 72.823 141.643 72.171C141.6 71.519 141.22 71.016 140.793 71.048C140.367 71.079 140.056 71.634 140.098 72.286Z" fill="#263238"/>
<path d="M148.944 71.569C148.987 72.221 149.367 72.724 149.794 72.692C150.22 72.66 150.532 72.106 150.489 71.454C150.446 70.802 150.066 70.299 149.639 70.331C149.213 70.363 148.902 70.917 148.944 71.569Z" fill="#263238"/>
<path d="M147.515 72.236C147.515 72.236 149.245 75.887 150.997 77.581C149.913 78.744 147.918 78.397 147.918 78.397L147.515 72.236Z" fill="#A02724"/>
<path d="M143.459 67.125C143.503 67.172 143.535 67.23 143.551 67.296C143.6 67.501 143.473 67.708 143.266 67.757C141.19 68.249 139.884 67.05 139.829 66.999C139.674 66.854 139.668 66.612 139.815 66.459C139.961 66.306 140.204 66.299 140.359 66.443C140.402 66.483 141.43 67.407 143.087 67.014C143.227 66.98 143.367 67.028 143.459 67.125Z" fill="#263238"/>
<path d="M145.078 69.017C145.022 68.986 144.974 68.94 144.939 68.882C144.83 68.701 144.89 68.466 145.073 68.357C146.906 67.265 148.511 68.017 148.579 68.05C148.77 68.142 148.849 68.371 148.755 68.561C148.661 68.751 148.432 68.83 148.241 68.739C148.188 68.714 146.93 68.141 145.468 69.012C145.344 69.086 145.195 69.083 145.078 69.017Z" fill="#263238"/>
<path d="M152.572 65.385C152.453 65.422 152.319 65.4 152.217 65.315C150.916 64.24 149.589 64.63 149.533 64.647C149.331 64.709 149.117 64.596 149.056 64.394C148.995 64.192 149.107 63.977 149.309 63.913C149.383 63.892 151.077 63.372 152.707 64.719C152.87 64.853 152.892 65.096 152.757 65.26C152.706 65.322 152.641 65.364 152.572 65.385Z" fill="#263238"/>
<path d="M196.16 165.008C195.724 164.201 194.708 163.898 193.901 164.334L181.667 170.945L175.885 160.246C175.449 159.439 174.433 159.136 173.627 159.572C172.82 160.008 172.517 161.024 172.953 161.831L178.735 172.53L136.578 195.313C135.772 195.749 135.468 196.765 135.904 197.572C136.34 198.378 137.357 198.682 138.163 198.246L195.487 167.267C196.293 166.831 196.596 165.814 196.16 165.008Z" fill="#263238"/>
<path d="M195.264 221.23C175.285 206.228 113.693 200.186 134.974 172.803L166.979 172.504C166.979 172.504 212.022 195.61 214.434 219.771C216.945 244.893 221.398 284.465 221.398 284.465L209.001 288.866C209.001 288.866 190.899 240.346 195.264 221.23Z" fill="#3CD278"/>
<path opacity="0.2" d="M136.075 186.551C135.334 188.163 134.65 189.851 134.022 191.614C139.001 197.267 148.826 201.618 159.459 205.659C156.214 199.855 148.948 193.461 136.075 186.551Z" fill="black"/>
<path d="M209.132 293.254L221.949 289.952C222.732 289.748 223.622 289.72 224.398 290.071C228.877 292.091 231.742 291.492 236.167 291.216C241.472 290.884 240.277 296.579 236.555 297.55C230.398 299.155 230.853 298.803 225.602 300.171C224.417 300.48 221.958 301.11 221.958 301.11L219.874 299.839L218.851 301.868C218.851 301.868 214.804 302.855 212.104 303.514C211.357 303.696 210.606 303.226 210.494 302.467L209.132 293.254Z" fill="#263238"/>
<path d="M209.462 294.519C209.651 294.43 224.077 290.391 224.077 290.391L221.842 279.299L205.807 283.643L209.462 294.519Z" fill="#263238"/>
<path d="M119.769 254.871C120.375 218.434 112.722 181.345 117.293 173.207L154.413 172.683C154.413 172.683 143.317 233.431 140.386 257.702C137.341 282.939 122.382 348.562 122.382 348.562L110.413 348.748C110.413 348.748 111.829 281.027 119.769 254.871Z" fill="#3CD278"/>
<path d="M109.966 350.681L120.984 350.51C121.792 350.497 122.669 350.681 123.355 351.206C127.312 354.229 127.777 354.327 132.163 355.107C137.422 356.042 135.059 361.291 131.214 361.352C124.855 361.452 125.373 361.218 119.951 361.303C118.727 361.323 114.062 361.352 114.062 361.352L113.204 359.623L112.238 361.352H110.687C109.933 361.352 109.319 360.699 109.367 359.949L109.966 350.681Z" fill="#263238"/>
<path d="M109.923 351.988C110.11 351.946 123.771 352.62 123.771 352.62L124.68 340.136L109.836 340.557L109.923 351.988Z" fill="#263238"/>
<path d="M146.804 96.805C146.804 96.805 150.24 103.437 146.295 108.819C149.421 108.841 152.845 110.178 152.845 110.178C152.845 110.178 155.631 103.43 149.485 97.392C149.05 96.662 146.804 96.805 146.804 96.805Z" fill="white"/>
<path d="M115.932 177.024C133.68 178.087 154.033 178.412 166.761 177.023C166.902 177.008 167.03 176.913 167.112 176.746C167.908 175.111 168.3 172.301 168.208 169.956C168.194 169.596 167.975 169.326 167.726 169.336C150.927 169.988 134.234 169.954 116.685 169.33C116.488 169.323 116.303 169.492 116.23 169.758C115.669 171.812 115.371 174.043 115.478 176.39C115.493 176.734 115.693 177.01 115.932 177.024Z" fill="#263238"/>
<path opacity="0.2" d="M115.932 177.024C133.68 178.087 154.033 178.412 166.761 177.023C166.902 177.008 167.03 176.913 167.112 176.746C167.908 175.111 168.3 172.301 168.208 169.956C168.194 169.596 167.975 169.326 167.726 169.336C150.927 169.988 134.234 169.954 116.685 169.33C116.488 169.323 116.303 169.492 116.23 169.758C115.669 171.812 115.371 174.043 115.478 176.39C115.493 176.734 115.693 177.01 115.932 177.024Z" fill="black"/>
<path d="M146.206 179.775C144.285 179.775 142.568 179.558 142.447 179.543L141.596 179.433L141.575 178.576C141.57 178.358 141.447 173.192 141.731 169.041L141.788 168.203L142.623 168.115C146.398 167.716 150.06 167.968 150.214 167.979L151.105 168.042L151.142 168.935C151.152 169.172 151.374 174.796 150.801 178.495L150.709 179.086L150.145 179.285C149.073 179.662 147.586 179.775 146.206 179.775ZM143.559 177.65C145.018 177.781 147.377 177.885 148.912 177.554C149.232 174.95 149.206 171.535 149.171 169.927C148.016 169.883 145.897 169.846 143.675 170.024C143.52 172.903 143.539 176.132 143.559 177.65Z" fill="white"/>
<path d="M126.92 169.31C126.92 169.31 126.631 174.918 126.225 178.489C125.433 179.306 123.957 178.681 123.957 178.681C123.957 178.681 124.251 173.495 124.602 169.426C125.789 169.045 126.92 169.31 126.92 169.31Z" fill="#3CD272"/>
<path d="M163.559 169.31C163.559 169.31 163.27 174.918 162.864 178.489C162.072 179.306 160.596 178.681 160.596 178.681C160.596 178.681 160.89 173.495 161.241 169.426C162.428 169.045 163.559 169.31 163.559 169.31Z" fill="#3CD272"/>
<path d="M151.961 118.678C152.5 125.908 157.11 127.536 157.757 127.522C158.404 127.509 162.758 125.696 162.219 118.466C160.381 118.516 158.636 117.72 156.937 116.514C155.522 117.894 153.883 118.667 151.961 118.678Z" fill="#3CD273"/>
<path d="M151.005 59.474C156.145 60.336 158.084 62.731 146.508 64.133C134.932 65.535 126.35 64.472 126.35 64.472C126.35 64.472 141.783 59.431 151.005 59.474Z" fill="#263238"/>
<path d="M125.415 65.075C125.415 65.075 135.483 61.668 151.352 59.814C151.613 56.615 149.115 54.279 149.115 54.279C149.115 54.279 154.974 53.23 152.064 51.528C150.068 50.361 145.286 50.23 140 46.828C137.833 48.809 131.887 52.023 127.83 52.436C126.824 54.155 124.202 58.46 119.953 60.123C120.014 61.999 124.24 62.486 124.24 62.486C124.24 62.486 124.041 63.749 125.415 65.075Z" fill="#3CD273"/>
<path opacity="0.8" d="M124.24 62.485C132.849 56.894 141.106 54.47 149.115 54.279C149.115 54.279 151.613 56.615 151.352 59.814C135.483 61.669 125.415 65.075 125.415 65.075C124.041 63.749 124.24 62.485 124.24 62.485Z" fill="#263238"/>
<path d="M139.509 52.753C140.502 57.671 143.979 58.567 144.446 58.528C144.914 58.489 147.918 57.046 146.925 52.128C145.597 52.248 144.266 51.786 142.934 51.04C142.024 52.05 140.901 52.655 139.509 52.753Z" fill="white"/>
<path d="M145.347 68.118C146.49 68.278 148.359 76.859 142.401 77.318C137.393 77.704 135.833 73.113 135.833 71.511C135.832 69.112 143.734 67.892 145.347 68.118Z" fill="#263238"/>
<path d="M147.874 68.015C147.164 68.448 148.756 77.586 152.918 76.624C156.416 75.816 155.828 70.846 155.258 69.243C154.405 66.84 148.877 67.403 147.874 68.015Z" fill="#263238"/>
<g opacity="0.2">
<path d="M143.244 68.208L146.355 73.874C146.092 74.955 145.567 75.945 144.638 76.581L140.346 68.733C141.346 68.491 142.376 68.31 143.244 68.208Z" fill="white"/>
<path d="M139.083 69.087L143.486 77.126C143.163 77.227 142.799 77.287 142.405 77.318C142.152 77.338 141.92 77.348 141.688 77.338L137.507 69.712C137.972 69.481 138.508 69.279 139.083 69.087Z" fill="white"/>
<path d="M152.91 67.653L155.667 72.683C155.606 73.551 155.414 74.42 154.98 75.127L150.799 67.481C151.506 67.471 152.243 67.522 152.91 67.653Z" fill="white"/>
<path d="M154.445 75.813C154.203 76.056 153.91 76.258 153.556 76.409L148.789 67.703C149.112 67.632 149.486 67.582 149.9 67.531L154.445 75.813Z" fill="white"/>
</g>
<path d="M209.047 122.984C209.561 122.768 208.704 120.724 208.189 120.939L138.254 150.273C138.078 150.008 137.743 149.886 137.438 150.014L134.513 151.241C134.208 151.369 134.06 151.693 134.126 152.005L124.933 155.861C122.875 156.724 121.035 158.035 119.546 159.698L115.429 164.298C115.271 166.51 113.404 168.207 111.188 168.154L110.576 168.14L89.437 180.932C87.844 181.896 87.071 183.795 87.536 185.598C88.445 189.123 89.7 191.949 91.216 194.247C92.658 196.434 95.749 196.748 97.638 194.932L119.041 174.367C119.945 173.499 120.508 172.336 120.63 171.088L120.888 168.448L125.506 163.288C126.821 165.528 129.61 166.524 132.07 165.492C134.75 164.368 136.016 161.273 134.892 158.593C134.866 158.531 134.825 158.479 134.797 158.418L136.509 157.7C136.68 157.981 137.027 158.112 137.34 157.981L140.265 156.754C140.578 156.623 140.728 156.284 140.647 155.965L181.435 138.856C181.909 138.657 182.133 138.111 181.934 137.637L203.927 128.412C204.268 128.269 203.744 127.019 203.403 127.163L201.777 127.845L201.692 126.069L209.047 122.984ZM131.642 164.471C129.588 165.333 127.237 164.406 126.288 162.417L126.902 161.731L127.212 161.601C127.482 161.955 127.782 162.289 128.141 162.571C129.249 163.44 130.629 163.825 132.027 163.657L131.894 162.555C130.79 162.689 129.701 162.386 128.825 161.699C128.618 161.537 128.432 161.355 128.262 161.162L133.775 158.849C133.804 158.91 133.844 158.961 133.87 159.024C134.758 161.139 133.759 163.583 131.642 164.471ZM199.776 128.685L181.411 136.388L180.765 134.848L199.692 126.909L199.776 128.685Z" fill="#3CD278"/>
<path opacity="0.2" d="M209.047 122.984C209.561 122.768 208.704 120.724 208.189 120.939L138.254 150.273C138.078 150.008 137.743 149.886 137.438 150.014L134.513 151.241C134.208 151.369 134.06 151.693 134.126 152.005L124.933 155.861C122.875 156.724 121.035 158.035 119.546 159.698L115.429 164.298C115.271 166.51 113.404 168.207 111.188 168.154L110.576 168.14L89.437 180.932C87.844 181.896 87.071 183.795 87.536 185.598C88.445 189.123 89.7 191.949 91.216 194.247C92.658 196.434 95.749 196.748 97.638 194.932L119.041 174.367C119.945 173.499 120.508 172.336 120.63 171.088L120.888 168.448L125.506 163.288C126.821 165.528 129.61 166.524 132.07 165.492C134.75 164.368 136.016 161.273 134.892 158.593C134.866 158.531 134.825 158.479 134.797 158.418L136.509 157.7C136.68 157.981 137.027 158.112 137.34 157.981L140.265 156.754C140.578 156.623 140.728 156.284 140.647 155.965L181.435 138.856C181.909 138.657 182.133 138.111 181.934 137.637L203.927 128.412C204.268 128.269 203.744 127.019 203.403 127.163L201.777 127.845L201.692 126.069L209.047 122.984ZM131.642 164.471C129.588 165.333 127.237 164.406 126.288 162.417L126.902 161.731L127.212 161.601C127.482 161.955 127.782 162.289 128.141 162.571C129.249 163.44 130.629 163.825 132.027 163.657L131.894 162.555C130.79 162.689 129.701 162.386 128.825 161.699C128.618 161.537 128.432 161.355 128.262 161.162L133.775 158.849C133.804 158.91 133.844 158.961 133.87 159.024C134.758 161.139 133.759 163.583 131.642 164.471ZM199.776 128.685L181.411 136.388L180.765 134.848L199.692 126.909L199.776 128.685Z" fill="black"/>
<path d="M182.066 134.677L162.69 142.804C162.019 143.086 161.686 143.844 161.932 144.529L162.725 146.73C162.99 147.466 163.819 147.83 164.54 147.528L183.915 139.401C184.586 139.12 184.919 138.361 184.673 137.677L183.88 135.476C183.616 134.738 182.788 134.374 182.066 134.677Z" fill="#3CD273"/>
<path d="M194.402 127.103L195.069 126.922C196.799 126.452 198.645 127.011 199.824 128.361L200.419 129.043C201.105 129.828 200.816 131.055 199.852 131.452L193.261 134.168C192.471 134.494 191.568 134.106 191.26 133.309C190.26 130.718 191.721 127.831 194.402 127.103Z" fill="#B55B52"/>
<path d="M124.6 113.302L124.099 113.898L123.52 114.608L122.337 116.08C121.556 117.088 120.767 118.106 119.997 119.144C118.456 121.221 116.966 123.361 115.531 125.539C114.063 127.698 112.744 129.953 111.384 132.189C110.081 134.455 108.825 136.752 107.635 139.084L106.753 140.839L106.538 141.267C106.517 141.316 106.492 141.364 106.464 141.411C106.4 141.491 106.352 141.62 106.301 141.757C106.094 142.294 105.904 143.122 105.841 144.085C105.714 146.023 105.958 148.424 106.416 150.847C107.309 155.721 108.994 160.943 110.675 165.912L110.739 166.101C111.403 168.063 110.35 170.192 108.387 170.856C106.843 171.378 105.193 170.832 104.237 169.622C102.339 167.21 100.776 164.822 99.283 162.238C97.806 159.668 96.476 156.982 95.359 154.083C94.269 151.174 93.315 148.093 93.017 144.463C92.874 142.65 92.868 140.677 93.333 138.514C93.445 137.975 93.575 137.433 93.772 136.866L94.053 136.03L94.256 135.504L95.057 133.443C97.216 127.952 99.863 122.662 102.902 117.597C104.434 115.071 106.038 112.585 107.801 110.188C108.68 108.988 109.579 107.795 110.531 106.628C111.016 106.045 111.482 105.456 111.997 104.879L112.774 104.003L113.661 103.043C116.469 100.003 121.21 99.815 124.25 102.624C127.199 105.349 127.464 109.892 124.912 112.937L124.6 113.302Z" fill="#263238"/>
<path d="M132.428 101.137C134.434 100.427 131.886 98.283 131.886 98.283C131.886 98.283 121.283 98.609 114.976 100.279C114.034 101.184 115.121 102.254 115.121 102.254C115.121 102.254 126.473 103.244 132.428 101.137Z" fill="#3CD273"/>
<path opacity="0.2" d="M132.274 98.084C132.274 98.084 133.839 103.999 140.985 108.829C137.859 108.852 133.444 111.949 133.444 111.949C133.444 111.949 129.287 106.72 130.755 98.528C131.189 97.798 132.274 98.084 132.274 98.084Z" fill="black"/>
<path d="M132.481 97.013C132.481 97.013 134.339 103.42 140.984 108.829C137.858 108.852 133.197 110.386 133.197 110.386C133.197 110.386 129.286 106.719 130.754 98.527C131.189 97.798 132.481 97.013 132.481 97.013Z" fill="white"/>
<path d="M109.615 165.456L115.834 170.806L107.585 176.168C107.585 176.168 102.542 170.641 105.046 167.487L109.615 165.456Z" fill="#B55B52"/>
<path d="M104.188 169.965C104.188 169.965 102.896 168.942 102.5 167.766C104.479 165.715 108.479 164.028 110.292 163.569C111.396 164.611 111.438 166.767 111.438 166.767C111.438 166.767 106.167 167.673 104.188 169.965Z" fill="white"/>
<path d="M116.539 179.297L113.331 180.689C112.054 181.243 110.564 180.791 109.81 179.621L107.586 176.168L115.835 170.806L117.992 175.504C118.656 176.951 118.001 178.663 116.539 179.297Z" fill="#B55B52"/>
<path d="M141.514 81.078L141.518 81.075C144.96 78.953 147.992 80.34 148.119 80.4C148.245 80.459 148.299 80.61 148.239 80.736C148.18 80.862 148.029 80.916 147.904 80.857C147.875 80.844 144.983 79.531 141.783 81.505C141.664 81.578 141.509 81.541 141.436 81.423C141.364 81.305 141.399 81.152 141.514 81.078Z" fill="#263238"/>
<path d="M125.153 118.562L138.637 118.047L138.59 116.957L125.106 117.472L125.153 118.562Z" fill="white"/>
<path d="M241.885 362.506H215.699L234.732 211.331H260.919L241.885 362.506Z" fill="#3CD273"/>
<path opacity="0.4" d="M241.885 362.506H215.699L234.732 211.331H260.919L241.885 362.506Z" fill="black"/>
<path d="M213.357 362.506H215.699L234.732 211.331H232.391L213.357 362.506Z" fill="#263238"/>
<path d="M339.534 362.506H313.347L332.381 211.331H358.568L339.534 362.506Z" fill="#3CD273"/>
<path opacity="0.4" d="M339.534 362.506H313.347L332.381 211.331H358.568L339.534 362.506Z" fill="black"/>
<path d="M311.005 362.506H313.347L332.381 211.331H330.039L311.005 362.506Z" fill="#263238"/>
<path d="M266.121 344.516H361.081L356.938 311.611H261.978L266.121 344.516Z" fill="#3CD278"/>
<path d="M266.121 344.516H264.566L260.423 311.611H261.978L266.121 344.516Z" fill="#263238"/>
<path d="M355.847 313.048L359.628 343.08H354.018L338.952 313.048H355.847Z" fill="white"/>
<path d="M329.384 313.048L344.45 343.08H323.846L308.78 313.048H329.384Z" fill="white"/>
<path d="M299.212 313.048L314.279 343.08H293.674L278.608 313.048H299.212Z" fill="white"/>
<path d="M269.047 313.048L284.113 343.08H267.211L263.43 313.048H269.047Z" fill="white"/>
<path d="M351.99 362.506H378.177L359.143 211.331H332.956L351.99 362.506Z" fill="#3CD278"/>
<path opacity="0.2" d="M341.436 278.68L368.986 289.504L361.082 226.725H334.895L341.436 278.68Z" fill="black"/>
<path d="M351.99 362.506H349.649L330.615 211.331H332.956L351.99 362.506Z" fill="#263238"/>
<path d="M254.342 362.506H280.529L261.495 211.331H235.308L254.342 362.506Z" fill="#3CD278"/>
<path opacity="0.2" d="M243.788 278.68L271.337 289.504L263.433 226.725H237.246L243.788 278.68Z" fill="black"/>
<path d="M254.342 362.506H252L232.966 211.331H235.308L254.342 362.506Z" fill="#263238"/>
<path d="M233.33 271.704H376.324L370.085 222.155H227.092L233.33 271.704Z" fill="#3CD278"/>
<path d="M233.33 271.704H230.989L224.75 222.155H227.092L233.33 271.704Z" fill="#263238"/>
<path d="M368.442 224.32L374.136 269.542H365.687L343 224.32H368.442Z" fill="white"/>
<path d="M328.593 224.32L351.28 269.542H320.254L297.567 224.32H328.593Z" fill="white"/>
<path d="M283.16 224.32L305.847 269.542H274.82L252.133 224.32H283.16Z" fill="white"/>
<path d="M237.736 224.32L260.423 269.542H234.972L229.278 224.32H237.736Z" fill="white"/>
</svg>
