<svg width="500" height="360" viewBox="0 0 500 360" fill="none" xmlns="http://www.w3.org/2000/svg">
<path d="M449.901 344.494H416.779V344.744H449.901V344.494Z" fill="#EBEBEB"/>
<path d="M331.22 347.208H322.527V347.458H331.22V347.208Z" fill="#EBEBEB"/>
<path d="M415.778 335.208H396.586V335.458H415.778V335.208Z" fill="#EBEBEB"/>
<path d="M95.652 336.888H52.459V337.138H95.652V336.888Z" fill="#EBEBEB"/>
<path d="M110.889 336.888H104.556V337.138H110.889V336.888Z" fill="#EBEBEB"/>
<path d="M225.147 341.111H131.471V341.361H225.147V341.111Z" fill="#EBEBEB"/>
<path d="M238.401 283.8H45.302C42.155 283.8 39.594 281.239 39.594 278.092V6.66003C39.594 3.51303 42.155 0.952026 45.302 0.952026H238.401C241.547 0.952026 244.108 3.51303 244.108 6.66003V278.092C244.108 281.239 241.547 283.8 238.401 283.8ZM45.302 1.20303C42.292 1.20303 39.844 3.65103 39.844 6.66103V278.093C39.844 281.103 42.292 283.551 45.302 283.551H238.401C241.41 283.551 243.858 281.103 243.858 278.093V6.66003C243.858 3.65103 241.41 1.20203 238.401 1.20203L45.302 1.20303Z" fill="#EBEBEB"/>
<path d="M454.698 283.8H261.599C258.453 283.8 255.892 281.239 255.892 278.092V6.66003C255.892 3.51303 258.453 0.952026 261.599 0.952026H454.698C457.846 0.952026 460.406 3.51303 460.406 6.66003V278.092C460.406 281.239 457.845 283.8 454.698 283.8ZM261.599 1.20303C258.59 1.20303 256.142 3.65103 256.142 6.66103V278.093C256.142 281.103 258.59 283.551 261.599 283.551H454.698C457.708 283.551 460.156 281.103 460.156 278.093V6.66003C460.156 3.65103 457.708 1.20203 454.698 1.20203L261.599 1.20303Z" fill="#EBEBEB"/>
<path d="M500 328.398H0V328.648H500V328.398Z" fill="#EBEBEB"/>
<path d="M119.331 260.75C118.486 251.092 108.627 247.477 96.944 248.499C85.262 249.521 76.18 254.794 77.025 264.452L119.331 260.75Z" fill="#F0F0F0"/>
<path d="M96.558 244.085C101.98 243.611 103.711 239.031 103.236 233.609C102.762 228.187 100.262 223.977 94.84 224.452C89.418 224.926 87.687 229.506 88.162 234.928C88.636 240.35 91.136 244.56 96.558 244.085Z" fill="#F0F0F0"/>
<path d="M340.1 54.971C340.362 57.961 338.15 60.597 335.16 60.858C332.17 61.12 329.534 58.9079 329.273 55.9179C329.011 52.9279 331.223 50.2919 334.213 50.0299C337.203 49.7689 339.839 51.981 340.1 54.971Z" fill="#F5F5F5"/>
<path d="M370.173 52.34C370.435 55.33 368.223 57.966 365.233 58.227C362.243 58.489 359.607 56.277 359.345 53.287C359.083 50.297 361.295 47.661 364.285 47.399C367.276 47.138 369.911 49.35 370.173 52.34Z" fill="#F5F5F5"/>
<path d="M400.246 49.709C400.508 52.699 398.296 55.335 395.306 55.597C392.316 55.859 389.68 53.647 389.418 50.657C389.156 47.667 391.368 45.031 394.358 44.769C397.348 44.507 399.984 46.719 400.246 49.709Z" fill="#F5F5F5"/>
<path d="M342.782 85.624C343.044 88.614 340.832 91.25 337.842 91.512C334.852 91.774 332.216 89.5621 331.954 86.5721C331.692 83.5821 333.904 80.946 336.894 80.685C339.885 80.422 342.521 82.633 342.782 85.624Z" fill="#F5F5F5"/>
<path d="M372.855 82.992C373.117 85.982 370.905 88.618 367.915 88.88C364.925 89.142 362.289 86.93 362.027 83.94C361.765 80.95 363.977 78.314 366.967 78.052C369.957 77.791 372.593 80.003 372.855 82.992Z" fill="#F5F5F5"/>
<path d="M402.928 80.3609C403.19 83.3509 400.978 85.9869 397.988 86.2479C394.998 86.5099 392.362 84.2979 392.1 81.3079C391.838 78.3179 394.05 75.6819 397.04 75.4199C400.03 75.1599 402.666 77.3719 402.928 80.3609Z" fill="#F5F5F5"/>
<path d="M345.464 116.276C345.726 119.266 343.514 121.902 340.524 122.164C337.534 122.426 334.898 120.214 334.637 117.224C334.375 114.234 336.587 111.598 339.577 111.336C342.566 111.074 345.202 113.286 345.464 116.276Z" fill="#F5F5F5"/>
<path d="M375.537 113.645C375.799 116.635 373.587 119.271 370.597 119.533C367.607 119.795 364.971 117.583 364.709 114.593C364.447 111.603 366.659 108.967 369.649 108.706C372.639 108.443 375.275 110.655 375.537 113.645Z" fill="#F5F5F5"/>
<path d="M405.609 111.014C405.871 114.004 403.659 116.64 400.669 116.901C397.679 117.162 395.043 114.951 394.781 111.961C394.519 108.971 396.731 106.335 399.721 106.074C402.712 105.812 405.348 108.024 405.609 111.014Z" fill="#F5F5F5"/>
<path d="M399.112 112.779L337.326 118.185L392.108 51.618L335.978 56.529C335.322 56.586 334.744 56.101 334.687 55.445C334.63 54.789 335.115 54.211 335.771 54.154L397.557 48.748L342.775 115.315L398.905 110.404C399.561 110.347 400.139 110.832 400.196 111.487C400.253 112.143 399.768 112.722 399.112 112.779Z" fill="#E6E6E6"/>
<path d="M400.059 231.606C399.855 231.017 399.328 230.58 398.706 230.539C395.872 230.349 393.478 229.289 391.583 227.386C389.112 224.905 387.659 221.129 387.424 216.646C387.38 215.811 386.68 215.16 385.844 215.155C384.918 215.149 384.18 215.931 384.23 216.855C384.515 222.113 386.293 226.61 389.315 229.645C391.676 232.016 394.721 233.405 398.191 233.708C398.251 233.713 398.329 233.72 398.419 233.727C399.57 233.818 400.437 232.696 400.059 231.606Z" fill="#F0F0F0"/>
<path d="M396.864 250.8C383.61 249.64 374.053 240.607 371.028 226.511C370.835 225.612 371.408 224.727 372.314 224.57C373.151 224.425 373.969 224.955 374.146 225.786C376.856 238.463 385.364 246.581 397.142 247.612C410.059 248.742 423.932 240.244 426.417 218.82C426.518 217.952 427.275 217.311 428.145 217.387C429.036 217.465 429.704 218.26 429.599 219.148C427.218 239.347 413.937 252.294 396.864 250.8Z" fill="#F0F0F0"/>
<path d="M371.86 212.462C370.969 212.384 370.301 211.589 370.406 210.701C372.788 190.501 386.07 177.555 403.142 179.048C418.101 180.357 428.187 191.556 429.758 208.426C429.841 209.317 429.15 210.093 428.257 210.146H428.254C427.383 210.198 426.648 209.54 426.565 208.672C425.123 193.473 416.147 183.398 402.862 182.236C389.945 181.106 376.072 189.603 373.587 211.028C373.487 211.897 372.73 212.538 371.86 212.462Z" fill="#F0F0F0"/>
<path d="M397.515 242.232C395.051 242.016 392.74 241.441 390.619 240.514C389.756 240.137 389.4 239.098 389.851 238.271C390.244 237.55 391.121 237.238 391.872 237.569C393.866 238.445 396.07 238.96 398.445 239.09C408.242 239.651 418.582 232.712 419.595 215.946C420.219 205.62 416.682 197.279 410.078 193.29C409.37 192.862 409.107 191.967 409.472 191.225C409.887 190.382 410.939 190.071 411.743 190.556C419.385 195.17 423.489 204.584 422.79 216.139C421.813 232.306 411.726 243.058 398.261 242.287C398.012 242.271 397.762 242.253 397.515 242.232Z" fill="#F0F0F0"/>
<path d="M383.266 232.258C382.492 232.787 381.434 232.54 380.964 231.728C378.129 226.824 376.803 220.501 377.214 213.71C378.149 198.245 387.421 187.734 400.012 187.527C400.946 187.512 401.701 188.293 401.648 189.226V189.23C401.6 190.061 400.923 190.715 400.091 190.731C390.754 190.915 381.373 197.973 380.41 213.903C380.036 220.087 381.219 225.794 383.755 230.158C384.171 230.875 383.951 231.79 383.266 232.258Z" fill="#F0F0F0"/>
<path d="M405.13 230.95C404.804 230.209 405.089 229.353 405.783 228.935C409.988 226.403 412.571 221.089 412.615 214.684C412.65 209.553 411.161 205.213 408.422 202.463C406.31 200.341 403.579 199.273 400.306 199.279C395.376 199.292 391.384 201.993 389.172 206.746C388.824 207.494 387.958 207.848 387.183 207.563C386.302 207.239 385.883 206.224 386.281 205.374C389.017 199.535 394.15 196.094 400.297 196.077C404.396 196.071 407.991 197.494 410.69 200.204C414.036 203.564 415.856 208.713 415.815 214.705C415.764 222.264 412.58 228.6 407.394 231.701C406.578 232.189 405.513 231.821 405.13 230.95Z" fill="#F0F0F0"/>
<path d="M393.609 219.193C392.7 219.558 391.683 219.03 391.45 218.078C391.344 217.645 391.256 217.199 391.187 216.74C390.282 210.756 393.499 205.545 398.67 204.621C401.339 204.142 403.719 204.77 405.538 206.394C406.276 207.054 406.219 208.231 405.414 208.808L405.314 208.879C404.708 209.313 403.909 209.215 403.344 208.729C402.259 207.798 400.881 207.476 399.233 207.771C395.292 208.476 393.794 212.576 394.352 216.261C394.406 216.62 394.474 216.968 394.556 217.302C394.746 218.087 394.358 218.891 393.609 219.193Z" fill="#F0F0F0"/>
<path d="M398.897 225.35C398.893 225.35 398.888 225.349 398.884 225.349C397.781 225.251 397.172 224.015 397.76 223.076L397.896 222.859C398.191 222.389 398.718 222.13 399.272 222.169C399.746 222.201 400.248 222.171 400.773 222.077C404.214 221.461 405.793 218.257 405.766 215.001C405.759 214.188 406.322 213.486 407.125 213.365C408.064 213.223 408.951 213.921 408.969 214.871C409.064 220.089 405.992 224.396 401.336 225.228C400.496 225.378 399.679 225.419 398.897 225.35Z" fill="#F0F0F0"/>
<path d="M399.608 219.442C397.904 219.293 396.634 218.145 396.173 216.506C395.906 215.556 396.703 214.636 397.685 214.722L398.052 214.754C398.622 214.804 399.092 215.194 399.282 215.734C399.375 215.998 399.553 216.224 399.886 216.253C400.655 216.32 400.79 215.217 400.81 214.995C400.824 214.837 400.857 214.224 400.595 213.863C400.338 213.509 400.162 213.104 400.2 212.668C400.325 211.245 402.123 210.673 403.03 211.777C403.751 212.655 404.121 213.884 403.999 215.274C403.77 217.891 401.923 219.645 399.608 219.442Z" fill="#F0F0F0"/>
<path d="M369.534 183.653C368.653 183.576 368.002 182.8 368.079 181.919L369.292 168.053L383.158 169.266C384.039 169.343 384.69 170.119 384.613 171C384.536 171.881 383.76 172.532 382.879 172.455L372.202 171.521L371.268 182.198C371.191 183.079 370.414 183.73 369.534 183.653Z" fill="#F0F0F0"/>
<path d="M435.462 189.421C434.581 189.344 433.93 188.568 434.007 187.687L434.941 177.01L424.264 176.076C423.383 175.999 422.732 175.223 422.809 174.342C422.886 173.461 423.662 172.81 424.543 172.887L438.409 174.1L437.196 187.966C437.119 188.847 436.343 189.498 435.462 189.421Z" fill="#F0F0F0"/>
<path d="M430.547 263.97L416.681 262.757C415.8 262.68 415.149 261.904 415.226 261.023C415.303 260.142 416.079 259.491 416.96 259.568L427.637 260.502L428.571 249.825C428.648 248.944 429.424 248.293 430.305 248.37C431.186 248.447 431.837 249.223 431.76 250.104L430.547 263.97Z" fill="#F0F0F0"/>
<path d="M375.295 259.136L361.429 257.923L362.642 244.057C362.719 243.176 363.495 242.525 364.376 242.602C365.257 242.679 365.908 243.455 365.831 244.336L364.897 255.013L375.574 255.947C376.455 256.024 377.106 256.8 377.029 257.681C376.952 258.562 376.176 259.213 375.295 259.136Z" fill="#F0F0F0"/>
<path d="M74.73 229.126C74.189 229.173 73.711 228.773 73.664 228.231L72.918 219.706L81.443 218.96C81.985 218.913 82.462 219.313 82.509 219.855C82.556 220.396 82.156 220.874 81.614 220.921L75.049 221.495L75.623 228.06C75.672 228.602 75.271 229.079 74.73 229.126Z" fill="#E0E0E0"/>
<path d="M115.266 225.58C114.725 225.627 114.247 225.227 114.2 224.685L113.626 218.12L107.061 218.694C106.52 218.741 106.042 218.341 105.995 217.799C105.948 217.258 106.348 216.78 106.89 216.733L115.415 215.987L116.161 224.512C116.208 225.055 115.808 225.533 115.266 225.58Z" fill="#E0E0E0"/>
<path d="M119.466 262.29L110.941 263.036C110.4 263.083 109.922 262.683 109.875 262.141C109.828 261.6 110.228 261.122 110.77 261.075L117.335 260.501L116.761 253.936C116.714 253.394 117.114 252.917 117.656 252.87C118.197 252.823 118.675 253.223 118.722 253.765L119.466 262.29Z" fill="#E0E0E0"/>
<path d="M85.494 265.262L76.969 266.008L76.223 257.482C76.176 256.941 76.576 256.463 77.118 256.416C77.659 256.369 78.137 256.769 78.184 257.311L78.758 263.876L85.323 263.302C85.864 263.255 86.342 263.655 86.389 264.197C86.436 264.737 86.035 265.214 85.494 265.262Z" fill="#E0E0E0"/>
<path d="M114.583 86.948L81.952 89.803L81.284 82.167C80.591 74.245 86.472 67.237 94.393 66.544C102.315 65.851 109.323 71.732 110.016 79.653L110.404 84.09L115.112 83.678L114.724 79.241C113.804 68.723 104.499 60.916 93.981 61.836C83.463 62.756 75.656 72.061 76.576 82.579L77.248 90.259C73.451 90.999 70.748 94.501 71.092 98.44L73.423 125.083C73.792 129.296 77.506 132.412 81.719 132.044L118.249 128.848C122.462 128.48 125.578 124.766 125.21 120.553L122.879 93.91C122.51 89.696 118.796 86.579 114.583 86.948ZM100.722 107.478L101.525 116.652C101.657 118.158 100.543 119.485 99.037 119.617C97.531 119.749 96.204 118.635 96.072 117.129L95.269 107.955C94.071 107.217 93.216 105.954 93.084 104.444C92.862 101.909 94.738 99.674 97.273 99.452C99.808 99.23 102.043 101.106 102.265 103.641C102.396 105.15 101.773 106.543 100.722 107.478Z" fill="#EBEBEB"/>
<path d="M170.445 102.393L167.146 97.015C165.359 97.262 163.897 97.262 162.11 97.015L158.811 102.393L158.178 102.225C156.052 101.66 154.001 100.808 152.083 99.695L151.516 99.366L152.915 93.528C153.028 93.055 153.503 92.764 153.976 92.877C154.449 92.99 154.74 93.465 154.626 93.938L153.534 98.492C154.959 99.268 156.457 99.89 158.001 100.348L161.223 95.094L161.806 95.189C163.674 95.494 165.58 95.494 167.448 95.189L168.031 95.094L171.253 100.348C172.797 99.889 174.295 99.268 175.72 98.492L174.286 92.507L174.766 92.163C176.074 91.223 177.24 90.112 178.241 88.855C178.538 88.481 179.067 88.393 179.454 88.672C179.856 88.961 179.95 89.531 179.643 89.919C178.659 91.161 177.529 92.273 176.271 93.237L177.74 99.366L177.174 99.695C175.256 100.808 173.205 101.66 171.079 102.225L170.445 102.393ZM150.225 90.652C149.948 90.335 149.68 90.009 149.423 89.674L143.293 91.142L142.964 90.576C141.851 88.658 140.999 86.607 140.434 84.481L140.266 83.848L145.644 80.549C145.52 79.653 145.46 78.825 145.46 78.031C145.46 77.238 145.521 76.409 145.644 75.513L140.266 72.215L140.434 71.582C140.999 69.456 141.851 67.405 142.964 65.487L143.293 64.921L149.422 66.389C150.449 65.049 151.644 63.855 152.984 62.827L151.872 58.189C151.759 57.717 152.05 57.243 152.521 57.13L152.524 57.129C152.996 57.016 153.47 57.307 153.583 57.778L154.967 63.556L154.483 63.904C152.947 65.01 151.6 66.357 150.495 67.893L150.15 68.372L144.165 66.938C143.39 68.363 142.769 69.861 142.31 71.405L147.562 74.626L147.467 75.209C147.299 76.24 147.217 77.163 147.217 78.03C147.217 78.899 147.299 79.821 147.467 80.851L147.562 81.433L142.309 84.656C142.767 86.201 143.389 87.698 144.164 89.123L150.149 87.689L150.494 88.168C150.819 88.62 151.168 89.059 151.536 89.48C151.842 89.83 151.834 90.353 151.499 90.676L151.467 90.707C151.115 91.05 150.549 91.022 150.225 90.652ZM185.962 91.143L183.702 90.602C183.229 90.489 182.938 90.014 183.051 89.541C183.164 89.069 183.639 88.777 184.112 88.89L185.088 89.124C185.863 87.699 186.484 86.201 186.943 84.657L181.69 81.434L181.785 80.852C181.953 79.822 182.035 78.899 182.035 78.031C182.035 77.163 181.953 76.241 181.785 75.21L181.69 74.627L186.942 71.406C186.484 69.861 185.862 68.364 185.087 66.939L179.102 68.373L178.757 67.894C177.652 66.358 176.305 65.011 174.769 63.905L174.285 63.557L175.719 57.572C174.294 56.797 172.796 56.175 171.252 55.716L168.03 60.969L167.447 60.875C165.578 60.572 163.672 60.572 161.803 60.875L161.221 60.969L157.999 55.717C157.799 55.776 157.599 55.839 157.399 55.904C156.953 56.05 156.473 55.81 156.312 55.37C156.142 54.907 156.383 54.385 156.851 54.232C157.29 54.088 157.733 53.957 158.174 53.84L158.808 53.671L162.107 59.05C163.902 58.801 165.347 58.801 167.142 59.05L170.441 53.671L171.075 53.839C173.201 54.405 175.252 55.257 177.17 56.369L177.736 56.698L176.267 62.828C177.607 63.856 178.802 65.05 179.829 66.39L185.958 64.922L186.287 65.488C187.4 67.406 188.252 69.457 188.817 71.583L188.985 72.216L183.607 75.514C183.731 76.41 183.791 77.239 183.791 78.032C183.791 78.826 183.73 79.654 183.607 80.55L188.985 83.849L188.817 84.482C188.252 86.608 187.4 88.659 186.287 90.577L185.962 91.143ZM164.381 86.6C159.913 86.474 156.187 82.75 156.059 78.282C155.93 73.779 159.295 70.018 163.638 69.517C164.163 69.456 164.628 69.867 164.628 70.396C164.628 70.84 164.297 71.213 163.856 71.263C160.026 71.697 157.149 75.319 157.951 79.403C158.472 82.055 160.609 84.192 163.262 84.71C167.615 85.561 171.441 82.235 171.441 78.031C171.441 76.624 171.007 75.262 170.208 74.121C169.956 73.761 170.024 73.269 170.354 72.978C170.749 72.629 171.365 72.702 171.666 73.135C172.661 74.565 173.201 76.27 173.201 78.031C173.199 82.84 169.22 86.736 164.381 86.6Z" fill="#F0F0F0"/>
<path d="M108.314 175.592L106.183 172.118C105.029 172.278 104.084 172.278 102.93 172.118L100.799 175.592L100.39 175.483C99.016 175.118 97.691 174.568 96.452 173.848L96.086 173.635L96.99 169.863C97.063 169.558 97.37 169.369 97.675 169.443C97.98 169.516 98.168 169.823 98.095 170.128L97.39 173.07C98.311 173.571 99.278 173.973 100.276 174.269L102.357 170.875L102.734 170.937C103.941 171.134 105.172 171.134 106.379 170.937L106.756 170.875L108.838 174.269C109.836 173.973 110.803 173.571 111.724 173.07L110.797 169.204L111.107 168.981C111.952 168.374 112.705 167.656 113.352 166.844C113.544 166.603 113.886 166.546 114.136 166.726C114.395 166.913 114.456 167.281 114.258 167.532C113.622 168.334 112.892 169.053 112.079 169.676L113.028 173.635L112.662 173.848C111.423 174.567 110.098 175.117 108.724 175.483L108.314 175.592ZM95.251 168.008C95.072 167.803 94.899 167.593 94.733 167.376L90.773 168.325L90.561 167.959C89.842 166.72 89.292 165.395 88.927 164.021L88.818 163.612L92.292 161.481C92.212 160.902 92.173 160.367 92.173 159.854C92.173 159.342 92.212 158.806 92.292 158.227L88.818 156.096L88.927 155.687C89.292 154.313 89.842 152.989 90.561 151.749L90.773 151.383L94.733 152.332C95.396 151.466 96.168 150.695 97.034 150.031L96.316 147.035C96.243 146.73 96.431 146.424 96.735 146.351L96.737 146.35C97.042 146.277 97.348 146.465 97.421 146.77L98.315 150.503L98.002 150.728C97.01 151.442 96.14 152.312 95.426 153.305L95.203 153.615L91.336 152.689C90.836 153.61 90.434 154.577 90.138 155.575L93.531 157.656L93.47 158.033C93.361 158.699 93.309 159.295 93.309 159.856C93.309 160.417 93.362 161.013 93.47 161.679L93.532 162.055L90.139 164.137C90.435 165.135 90.837 166.102 91.337 167.023L95.204 166.097L95.427 166.407C95.637 166.699 95.862 166.983 96.1 167.255C96.298 167.481 96.292 167.819 96.076 168.027L96.055 168.047C95.826 168.264 95.461 168.246 95.251 168.008ZM118.338 168.324L116.878 167.975C116.573 167.902 116.384 167.595 116.457 167.29C116.53 166.985 116.837 166.797 117.142 166.87L117.773 167.021C118.273 166.1 118.675 165.133 118.971 164.135L115.578 162.053L115.64 161.677C115.748 161.012 115.801 160.415 115.801 159.854C115.801 159.293 115.748 158.697 115.64 158.031L115.579 157.654L118.972 155.573C118.676 154.575 118.274 153.608 117.774 152.687L113.907 153.613L113.684 153.303C112.97 152.311 112.1 151.44 111.108 150.726L110.795 150.501L111.722 146.634C110.801 146.133 109.834 145.732 108.836 145.435L106.755 148.828L106.379 148.767C105.172 148.571 103.941 148.571 102.733 148.767L102.357 148.828L100.276 145.435C100.147 145.473 100.017 145.514 99.889 145.556C99.601 145.65 99.291 145.495 99.187 145.211C99.077 144.912 99.233 144.575 99.535 144.476C99.819 144.383 100.105 144.298 100.389 144.223L100.799 144.114L102.93 147.589C104.09 147.428 105.023 147.428 106.183 147.589L108.314 144.114L108.723 144.223C110.096 144.589 111.421 145.139 112.661 145.857L113.027 146.07L112.078 150.03C112.944 150.694 113.715 151.465 114.379 152.331L118.339 151.382L118.551 151.748C119.27 152.987 119.82 154.312 120.185 155.686L120.294 156.095L116.82 158.226C116.9 158.805 116.939 159.34 116.939 159.853C116.939 160.366 116.9 160.901 116.82 161.48L120.294 163.611L120.185 164.02C119.82 165.394 119.27 166.719 118.551 167.958L118.338 168.324ZM104.397 165.389C101.51 165.308 99.104 162.902 99.021 160.015C98.937 157.106 101.111 154.676 103.917 154.352C104.256 154.313 104.556 154.579 104.556 154.92C104.556 155.207 104.342 155.448 104.057 155.48C101.583 155.76 99.724 158.1 100.242 160.739C100.578 162.452 101.959 163.833 103.673 164.168C106.485 164.718 108.957 162.569 108.957 159.853C108.957 158.944 108.677 158.064 108.161 157.327C107.998 157.095 108.042 156.776 108.255 156.588C108.511 156.362 108.908 156.41 109.103 156.69C109.746 157.614 110.095 158.715 110.095 159.853C110.093 162.96 107.522 165.478 104.397 165.389Z" fill="#E6E6E6"/>
<path d="M363.45 91.827H330.889L307.858 355.076H340.419C349.679 355.076 357.871 347.543 358.681 338.283L378.774 108.62C379.584 99.36 372.71 91.827 363.45 91.827Z" fill="#407BFF"/>
<path d="M356.806 91.827H246.607C237.347 91.827 229.155 99.36 228.345 108.62L208.252 338.283C207.442 347.543 214.316 355.076 223.576 355.076H333.775C343.035 355.076 351.227 347.543 352.037 338.283L372.13 108.62C372.94 99.36 366.066 91.827 356.806 91.827Z" fill="#407BFF"/>
<path opacity="0.3" d="M356.806 91.827H246.607C237.347 91.827 229.155 99.36 228.345 108.62L208.252 338.283C207.442 347.543 214.316 355.076 223.576 355.076H333.775C343.035 355.076 351.227 347.543 352.037 338.283L372.13 108.62C372.94 99.36 366.066 91.827 356.806 91.827Z" fill="white"/>
<path opacity="0.4" d="M356.335 97.207H327.281C325.567 97.207 323.958 98.332 323.323 99.974C320.974 106.044 315.026 110.201 308.69 110.201H291.509C285.173 110.201 279.951 106.043 278.664 99.974C278.316 98.332 276.904 97.208 275.19 97.208H246.136C239.833 97.208 234.277 102.317 233.725 108.62L213.632 338.283C213.081 344.586 217.743 349.695 224.046 349.695H334.245C340.548 349.695 346.104 344.586 346.656 338.283L366.749 108.62C367.3 102.317 362.638 97.207 356.335 97.207Z" fill="white"/>
<path d="M328.883 221.958H251.759C249.472 221.958 247.781 220.104 247.981 217.818L248.367 213.405C248.567 211.118 250.583 209.265 252.87 209.265H329.994C332.281 209.265 333.972 211.119 333.772 213.405L333.386 217.818C333.186 220.104 331.17 221.958 328.883 221.958Z" fill="white"/>
<path d="M327.217 240.998H250.093C247.806 240.998 246.115 239.144 246.315 236.858L246.701 232.445C246.901 230.158 248.917 228.305 251.204 228.305H328.328C330.615 228.305 332.306 230.159 332.106 232.445L331.72 236.858C331.52 239.144 329.504 240.998 327.217 240.998Z" fill="white"/>
<path opacity="0.1" d="M305.45 101.509C305.228 104.045 302.993 106.1 300.457 106.1C297.921 106.1 296.046 104.045 296.268 101.509C296.49 98.973 298.725 96.918 301.261 96.918C303.796 96.918 305.672 98.973 305.45 101.509Z" fill="black"/>
<path opacity="0.1" d="M303.367 101.509C303.246 102.894 302.025 104.017 300.639 104.017C299.254 104.017 298.229 102.894 298.35 101.509C298.471 100.124 299.692 99.001 301.078 99.001C302.464 99.001 303.488 100.124 303.367 101.509Z" fill="black"/>
<g opacity="0.8">
<path d="M342.769 109.167C342.026 109.167 341.476 108.565 341.541 107.822L341.756 105.363C341.821 104.62 342.476 104.018 343.219 104.018C343.962 104.018 344.512 104.62 344.447 105.363L344.232 107.822C344.167 108.565 343.512 109.167 342.769 109.167Z" fill="white"/>
<path d="M353.531 109.167C352.788 109.167 352.238 108.565 352.303 107.822L352.808 102.051C352.873 101.308 353.528 100.706 354.271 100.706C355.014 100.706 355.564 101.308 355.499 102.051L354.994 107.822C354.929 108.565 354.274 109.167 353.531 109.167Z" fill="white"/>
<path d="M348.15 109.167C347.407 109.167 346.857 108.565 346.922 107.822L347.282 103.707C347.347 102.964 348.002 102.362 348.745 102.362C349.488 102.362 350.038 102.964 349.973 103.707L349.613 107.822C349.548 108.565 348.893 109.167 348.15 109.167Z" fill="white"/>
</g>
<g opacity="0.8">
<path d="M250.635 109.167H243.88C243.459 109.167 243.148 108.826 243.185 108.405L243.502 104.778C243.539 104.357 243.91 104.016 244.33 104.016H251.085C251.506 104.016 251.817 104.357 251.78 104.778L251.463 108.405C251.426 108.826 251.056 109.167 250.635 109.167Z" fill="white"/>
<path d="M253.767 108.183C253.346 108.183 253.035 107.842 253.072 107.421L253.217 105.762C253.254 105.341 253.625 105 254.045 105C254.466 105 254.777 105.341 254.74 105.762L254.595 107.421C254.559 107.842 254.188 108.183 253.767 108.183Z" fill="white"/>
</g>
<path d="M316.188 192.951C329.644 180.07 330.985 159.633 319.183 147.303C307.38 134.973 286.904 135.42 273.448 148.301C259.991 161.182 258.65 181.619 270.453 193.949C282.255 206.279 302.731 205.832 316.188 192.951Z" fill="white"/>
<path d="M294.921 169.379C286.436 169.379 279.274 172.607 278.661 179.622L277.98 187.407H308.709L309.39 179.622C310.003 172.607 303.407 169.379 294.921 169.379Z" fill="#407BFF"/>
<path d="M295.202 166.173C299.14 166.173 300.956 162.981 301.3 159.043C301.645 155.105 300.387 151.913 296.449 151.913C292.511 151.913 290.695 155.105 290.35 159.043C290.006 162.981 291.264 166.173 295.202 166.173Z" fill="#407BFF"/>
<path d="M325.363 215.384C323.267 215.384 321.498 216.181 321.347 217.914L321.179 219.837H328.769L328.937 217.914C329.088 216.181 327.459 215.384 325.363 215.384Z" fill="#407BFF"/>
<path d="M325.432 214.592C326.405 214.592 326.853 213.803 326.938 212.831C327.023 211.858 326.713 211.07 325.74 211.07C324.767 211.07 324.319 211.859 324.234 212.831C324.149 213.804 324.46 214.592 325.432 214.592Z" fill="#407BFF"/>
<path d="M301.994 260.038H271.985C268.48 260.038 265.887 257.197 266.194 253.691C266.501 250.186 269.591 247.344 273.096 247.344H303.105C306.61 247.344 309.203 250.186 308.896 253.691C308.589 257.197 305.499 260.038 301.994 260.038Z" fill="#407BFF"/>
<path d="M298.374 330.818H266.257C262.553 330.818 259.813 327.815 260.137 324.111L262.186 300.686C262.51 296.982 265.775 293.979 269.479 293.979H301.596C305.3 293.979 308.04 296.982 307.716 300.686L305.667 324.111C305.343 327.815 302.078 330.818 298.374 330.818Z" fill="#407BFF"/>
<g opacity="0.6">
<path d="M288.469 306.603C288.664 304.374 287.015 302.567 284.786 302.567C282.557 302.567 280.592 304.374 280.397 306.603C280.281 307.93 280.828 309.098 281.753 309.833L281.047 317.899C280.931 319.223 281.91 320.296 283.234 320.296C284.558 320.296 285.725 319.223 285.841 317.899L286.547 309.833C287.602 309.098 288.353 307.931 288.469 306.603Z" fill="white"/>
</g>
<path d="M301.881 298.855H297.742L298.756 287.265C299.365 280.3 294.195 274.634 287.23 274.634C280.265 274.634 274.103 280.3 273.494 287.265L272.48 298.855H268.341L269.355 287.265C270.164 278.018 278.345 270.495 287.592 270.495C296.839 270.495 303.704 278.018 302.895 287.265L301.881 298.855Z" fill="#407BFF"/>
<path d="M325.871 233.134L325.968 232.022C326.068 230.885 325.224 229.961 324.087 229.961C322.95 229.961 321.945 230.886 321.846 232.022L321.749 233.134C321.295 233.134 320.895 233.502 320.856 233.956L320.597 236.912C320.557 237.366 320.893 237.734 321.347 237.734H325.467C325.921 237.734 326.321 237.366 326.361 236.912L326.62 233.956C326.66 233.502 326.325 233.134 325.871 233.134ZM324.043 230.469C324.899 230.469 325.534 231.165 325.46 232.021L325.363 233.133H322.258L322.355 232.021C322.43 231.165 323.187 230.469 324.043 230.469Z" fill="#407BFF"/>
<path d="M263.847 234.318L262.409 234.021C262.239 233.986 262.151 233.807 262.222 233.639L262.821 232.223C262.95 231.919 262.58 231.694 262.347 231.935L261.26 233.055C261.131 233.188 260.924 233.188 260.819 233.055L259.928 231.935C259.737 231.695 259.328 231.919 259.403 232.223L259.754 233.639C259.796 233.807 259.677 233.986 259.5 234.021L258.01 234.318C257.69 234.382 257.651 234.831 257.96 234.895L259.398 235.192C259.568 235.227 259.656 235.406 259.585 235.574L258.986 236.99C258.857 237.294 259.227 237.519 259.46 237.278L260.547 236.158C260.676 236.025 260.883 236.025 260.988 236.158L261.879 237.278C262.07 237.519 262.479 237.294 262.404 236.99L262.053 235.574C262.011 235.406 262.13 235.227 262.307 235.192L263.797 234.895C264.117 234.831 264.156 234.381 263.847 234.318Z" fill="#263238"/>
<path d="M273.31 234.318L271.872 234.021C271.702 233.986 271.614 233.807 271.685 233.639L272.284 232.223C272.413 231.919 272.043 231.694 271.81 231.935L270.723 233.055C270.594 233.188 270.388 233.188 270.282 233.055L269.391 231.935C269.2 231.695 268.791 231.919 268.866 232.223L269.217 233.639C269.259 233.807 269.139 233.986 268.963 234.021L267.473 234.318C267.153 234.382 267.114 234.831 267.422 234.895L268.86 235.192C269.03 235.227 269.118 235.406 269.047 235.574L268.448 236.99C268.319 237.294 268.689 237.519 268.922 237.278L270.009 236.158C270.138 236.025 270.344 236.025 270.45 236.158L271.341 237.278C271.532 237.519 271.941 237.294 271.866 236.99L271.515 235.574C271.473 235.406 271.593 235.227 271.769 235.192L273.259 234.895C273.58 234.831 273.619 234.381 273.31 234.318Z" fill="#263238"/>
<path d="M282.773 234.318L281.335 234.021C281.165 233.986 281.077 233.807 281.148 233.639L281.747 232.223C281.876 231.919 281.506 231.694 281.273 231.935L280.186 233.055C280.057 233.188 279.85 233.188 279.745 233.055L278.854 231.935C278.663 231.695 278.254 231.919 278.329 232.223L278.68 233.639C278.722 233.807 278.603 233.986 278.426 234.021L276.936 234.318C276.616 234.382 276.577 234.831 276.885 234.895L278.323 235.192C278.493 235.227 278.581 235.406 278.51 235.574L277.911 236.99C277.782 237.294 278.152 237.519 278.385 237.278L279.472 236.158C279.601 236.025 279.808 236.025 279.913 236.158L280.804 237.278C280.995 237.519 281.404 237.294 281.329 236.99L280.978 235.574C280.936 235.406 281.055 235.227 281.232 235.192L282.722 234.895C283.043 234.831 283.082 234.381 282.773 234.318Z" fill="#263238"/>
<path d="M292.237 234.318L290.799 234.021C290.629 233.986 290.541 233.807 290.612 233.639L291.211 232.223C291.34 231.919 290.97 231.694 290.737 231.935L289.65 233.055C289.521 233.188 289.314 233.188 289.209 233.055L288.318 231.935C288.127 231.695 287.718 231.919 287.793 232.223L288.144 233.639C288.186 233.807 288.067 233.986 287.89 234.021L286.4 234.318C286.08 234.382 286.041 234.831 286.35 234.895L287.788 235.192C287.958 235.227 288.046 235.406 287.975 235.574L287.376 236.99C287.247 237.294 287.617 237.519 287.85 237.278L288.937 236.158C289.066 236.025 289.273 236.025 289.378 236.158L290.269 237.278C290.46 237.519 290.869 237.294 290.794 236.99L290.443 235.574C290.401 235.406 290.52 235.227 290.697 235.192L292.187 234.895C292.506 234.831 292.546 234.381 292.237 234.318Z" fill="#263238"/>
<path d="M301.7 234.318L300.262 234.021C300.092 233.986 300.004 233.807 300.075 233.639L300.674 232.223C300.803 231.919 300.433 231.694 300.2 231.935L299.113 233.055C298.984 233.188 298.777 233.188 298.672 233.055L297.781 231.935C297.59 231.695 297.181 231.919 297.256 232.223L297.607 233.639C297.649 233.807 297.53 233.986 297.353 234.021L295.863 234.318C295.543 234.382 295.504 234.831 295.812 234.895L297.25 235.192C297.42 235.227 297.508 235.406 297.437 235.574L296.838 236.99C296.71 237.294 297.079 237.519 297.312 237.278L298.399 236.158C298.528 236.025 298.734 236.025 298.84 236.158L299.731 237.278C299.922 237.519 300.331 237.294 300.256 236.99L299.905 235.574C299.863 235.406 299.983 235.227 300.159 235.192L301.649 234.895C301.969 234.831 302.009 234.381 301.7 234.318Z" fill="#263238"/>
<path d="M311.163 234.318L309.725 234.021C309.555 233.986 309.467 233.807 309.538 233.639L310.137 232.223C310.265 231.919 309.896 231.694 309.663 231.935L308.576 233.055C308.447 233.188 308.241 233.188 308.135 233.055L307.244 231.935C307.053 231.695 306.644 231.919 306.719 232.223L307.07 233.639C307.112 233.807 306.992 233.986 306.816 234.021L305.326 234.318C305.006 234.382 304.967 234.831 305.275 234.895L306.713 235.192C306.883 235.227 306.971 235.406 306.9 235.574L306.301 236.99C306.172 237.294 306.542 237.519 306.775 237.278L307.862 236.158C307.991 236.025 308.198 236.025 308.303 236.158L309.194 237.278C309.385 237.519 309.794 237.294 309.719 236.99L309.368 235.574C309.326 235.406 309.445 235.227 309.622 235.192L311.112 234.895C311.432 234.831 311.472 234.381 311.163 234.318Z" fill="#263238"/>
<path d="M288.353 213.612H270.585C269.481 213.612 268.508 214.507 268.411 215.611C268.314 216.715 269.131 217.61 270.235 217.61H288.003C289.107 217.61 290.08 216.715 290.177 215.611C290.274 214.507 289.457 213.612 288.353 213.612Z" fill="#263238"/>
<path d="M306.39 213.612H296.08C294.976 213.612 294.003 214.507 293.906 215.611C293.809 216.715 294.626 217.61 295.73 217.61H306.04C307.144 217.61 308.117 216.715 308.214 215.611C308.311 214.507 307.494 213.612 306.39 213.612Z" fill="#263238"/>
<path d="M320.001 304.264C313.302 306.939 307.429 310.841 303.409 315.278C301.052 313.272 297.701 311.879 293.684 311.242L293.213 311.167L293.007 313.526L293.27 313.625C297.235 315.123 300.462 317.781 302.603 321.31L302.939 321.865L303.311 321.27C307.431 314.674 313.439 309.148 320.227 305.71L320.457 305.593L320.594 304.025L320.001 304.264Z" fill="#263238"/>
<path opacity="0.2" d="M230.645 107.374C229.396 109.571 228.572 112.022 228.344 114.619L213.452 284.84H259.529L268.787 249.347L265.74 213.854L274.998 178.361L271.951 142.868L281.209 107.375H230.645V107.374Z" fill="black"/>
<path d="M267.951 132.868L277.208 97.374H160.684L151.426 132.868L154.474 168.361L145.216 203.854L148.263 239.348L139.005 274.841H255.529L264.787 239.348L261.74 203.854L270.997 168.361L267.951 132.868Z" fill="#407BFF"/>
<path opacity="0.7" d="M267.951 132.868L277.208 97.374H160.684L151.426 132.868L154.474 168.361L145.216 203.854L148.263 239.348L139.005 274.841H255.529L264.787 239.348L261.74 203.854L270.997 168.361L267.951 132.868Z" fill="white"/>
<path opacity="0.5" d="M267.95 132.868H151.426L160.684 97.374H277.208L267.95 132.868Z" fill="white"/>
<path opacity="0.5" d="M261.74 203.854H145.216L154.474 168.361H270.998L261.74 203.854Z" fill="white"/>
<path opacity="0.5" d="M255.529 274.841H139.005L148.263 239.348H264.787L255.529 274.841Z" fill="white"/>
<path opacity="0.2" d="M252.358 147.7C251.357 148.013 250.075 148.201 248.678 148.201C246.621 148.201 244.813 147.794 243.785 147.181C243.503 147.012 243.193 146.928 242.883 146.928C242.595 146.928 242.308 147.009 242.042 147.154C242.022 147.165 242 147.169 241.981 147.181C241.97 147.188 241.956 147.193 241.945 147.2C241.564 147.422 241.084 147.617 240.524 147.774C239.563 148.043 238.375 148.202 237.089 148.202C236.74 148.202 236.397 148.19 236.065 148.168C235.068 148.1 234.159 147.936 233.409 147.702C233.278 147.661 233.146 147.637 233.017 147.628C232.11 147.568 231.295 148.264 231.295 149.226V150.31H186.004C182.499 150.31 179.657 153.151 179.657 156.657V163.053C179.657 166.558 182.499 169.4 186.004 169.4H237.531C237.645 169.4 237.755 169.389 237.868 169.383C238.424 169.843 239.003 170.302 239.616 170.767C240.35 171.323 241.123 171.887 241.933 172.475C242.497 172.884 243.271 172.884 243.835 172.475C250.314 167.776 254.474 164.535 254.474 155.63V149.227C254.473 148.126 253.408 147.372 252.358 147.7Z" fill="black"/>
<path d="M236.546 165.875H185.019C181.514 165.875 178.672 163.034 178.672 159.528V153.132C178.672 149.627 181.513 146.785 185.019 146.785H236.546C240.051 146.785 242.893 149.626 242.893 153.132V159.528C242.893 163.033 240.051 165.875 236.546 165.875Z" fill="#407BFF"/>
<path d="M247.694 144.677C245.637 144.677 243.83 144.27 242.801 143.657C242.236 143.32 241.562 143.32 240.997 143.657C239.969 144.27 238.162 144.677 236.104 144.677C234.706 144.677 233.425 144.489 232.424 144.177C231.375 143.849 230.309 144.602 230.309 145.702V152.105C230.309 161.01 234.469 164.251 240.948 168.95C241.512 169.359 242.286 169.359 242.85 168.95C249.329 164.251 253.489 161.01 253.489 152.105V145.702C253.489 144.602 252.424 143.849 251.374 144.177C250.373 144.489 249.092 144.677 247.694 144.677Z" fill="#407BFF"/>
<path opacity="0.3" d="M247.694 144.677C245.637 144.677 243.83 144.27 242.801 143.657C242.236 143.32 241.562 143.32 240.997 143.657C239.969 144.27 238.162 144.677 236.104 144.677C234.706 144.677 233.425 144.489 232.424 144.177C231.375 143.849 230.309 144.602 230.309 145.702V152.105C230.309 161.01 234.469 164.251 240.948 168.95C241.512 169.359 242.286 169.359 242.85 168.95C249.329 164.251 253.489 161.01 253.489 152.105V145.702C253.489 144.602 252.424 143.849 251.374 144.177C250.373 144.489 249.092 144.677 247.694 144.677Z" fill="white"/>
<path opacity="0.2" d="M240.997 143.657C239.969 144.27 238.162 144.677 236.104 144.677C234.706 144.677 233.425 144.489 232.424 144.177C231.375 143.849 230.309 144.602 230.309 145.701V152.105C230.309 161.01 234.469 164.251 240.948 168.95C241.23 169.154 241.564 169.257 241.899 169.257V143.404C241.589 143.404 241.279 143.488 240.997 143.657Z" fill="white"/>
<path d="M251.186 150.357C246.999 152.089 243.416 154.616 241.065 157.49C239.425 156.191 237.176 155.289 234.538 154.876L234.229 154.828V156.356L234.405 156.42C237.058 157.39 239.298 159.112 240.885 161.397L241.134 161.756L241.341 161.371C243.636 157.099 247.214 153.52 251.415 151.294L251.558 151.218V150.203L251.186 150.357Z" fill="#263238"/>
<path d="M275.151 107.355H270.73C268.278 107.355 266.465 105.368 266.679 102.916L267.066 98.495C267.281 96.043 269.442 94.056 271.894 94.056H276.315C278.767 94.056 280.58 96.044 280.366 98.495L279.979 102.916C279.764 105.368 277.603 107.355 275.151 107.355Z" fill="#407BFF"/>
<path d="M276.988 98.4861L276.029 97.4341L273.614 99.6541L271.588 97.4341L270.444 98.4861L272.47 100.706L270.056 102.926L271.016 103.978L273.43 101.758L275.456 103.978L276.6 102.926L274.574 100.706L276.988 98.4861Z" fill="white"/>
<path d="M176.372 145.494C178.935 148.281 181.384 151.168 183.802 154.082C186.223 156.993 188.584 159.956 190.916 162.945C191.018 163.075 190.977 163.022 191.001 163.061C191.012 163.078 191.014 163.106 191.028 163.12C191.054 163.149 191.068 163.197 191.099 163.223C191.145 163.297 191.212 163.35 191.279 163.42C191.421 163.547 191.615 163.644 191.831 163.684C191.938 163.7 192.051 163.716 192.166 163.704C192.228 163.712 192.283 163.693 192.348 163.691C192.382 163.692 192.407 163.674 192.44 163.67C192.491 163.648 192.459 163.693 192.597 163.611L195.102 162.253C198.462 160.474 201.849 158.735 205.352 157.174L208.28 160.8C205.458 163.397 202.519 166.645 199.553 169.025L197.313 170.786C197.256 170.838 197.015 170.996 196.864 171.097C196.691 171.208 196.522 171.328 196.339 171.426C195.976 171.626 195.61 171.826 195.221 171.98C194.453 172.312 193.633 172.523 192.802 172.651C191.135 172.899 189.403 172.731 187.786 172.152C186.98 171.862 186.199 171.475 185.488 170.981C185.124 170.745 184.791 170.468 184.459 170.189C184.292 170.05 184.143 169.895 183.987 169.744L183.589 169.341C180.943 166.627 178.326 163.887 175.768 161.095C173.208 158.305 170.678 155.49 168.262 152.574L176.372 145.494Z" fill="#B55B52"/>
<path d="M203.99 159.382L206.321 151.895L212.457 154.953C212.457 154.953 211.563 160.416 207.096 161.363L203.99 159.382Z" fill="#B55B52"/>
<path d="M208.783 149.818L214.317 151.342L212.458 154.952L206.322 151.894L208.783 149.818Z" fill="#B55B52"/>
<path d="M144.094 147.534C143.426 150.715 142.61 153.86 141.755 156.996C140.904 160.133 139.975 163.251 139.009 166.36L138.649 167.526L138.469 168.109C138.431 168.236 138.406 168.268 138.372 168.353C138.262 168.648 138.196 168.968 138.183 169.304C138.166 169.97 138.324 170.711 138.76 171.355C138.796 171.459 139.141 171.821 139.41 172.113L140.24 173.015L141.877 174.848C142.955 176.085 144.029 177.326 145.049 178.631L141.564 182.665C140.125 181.846 138.741 180.963 137.36 180.076L135.309 178.723L134.295 178.032C133.95 177.792 133.673 177.631 133.121 177.174C131.219 175.561 129.798 173.271 129.277 170.728C129.011 169.459 128.946 168.136 129.094 166.826C129.133 166.512 129.192 166.146 129.24 165.877L129.346 165.276L129.558 164.074C130.119 160.867 130.717 157.669 131.392 154.489C132.064 151.309 132.775 148.138 133.633 145.003L144.094 147.534Z" fill="#B55B52"/>
<path d="M141.625 178.346L145.751 176.236L147.571 183.249C147.571 183.249 144.26 184.518 141.697 182.888L141.625 178.346Z" fill="#B55B52"/>
<path d="M151.452 173.993L151.639 180.426L147.032 183.439L145.434 176.372L151.452 173.993Z" fill="#B55B52"/>
<path d="M164.942 114.469C165.043 114.965 165.387 115.313 165.711 115.247C166.035 115.181 166.216 114.726 166.115 114.23C166.014 113.734 165.67 113.386 165.346 113.452C165.023 113.518 164.842 113.973 164.942 114.469Z" fill="#263238"/>
<path d="M165.342 115.322C165.342 115.322 167.05 117.952 168.571 119.079C167.86 120.076 166.294 120.005 166.294 120.005L165.342 115.322Z" fill="#A02724"/>
<path d="M162.568 112.085C162.496 112.085 162.423 112.059 162.366 112.006C162.246 111.895 162.238 111.707 162.35 111.586C163.465 110.379 164.818 110.594 164.877 110.603C165.039 110.631 165.147 110.784 165.12 110.946C165.092 111.107 164.937 111.215 164.779 111.189C164.734 111.182 163.676 111.027 162.787 111.989C162.728 112.053 162.648 112.085 162.568 112.085Z" fill="#263238"/>
<path d="M150.521 121.44C151.624 126.027 152.725 134.432 148.788 137.492C148.788 137.492 150.326 142.145 160.783 142.145C172.281 142.145 166.278 139.148 166.278 139.148C160.003 137.927 160.164 132.476 161.257 128.912L150.521 121.44Z" fill="#B55B52"/>
<path d="M147.563 138.343C146.878 137.068 146.123 135.61 147.684 135.153C149.401 134.65 160.432 133.718 163.672 134.662C162.676 136.433 164.362 138.61 164.362 138.61L147.563 138.343Z" fill="#263238"/>
<path d="M156.696 352.919H163.911L164.629 338.398H157.415L156.696 352.919Z" fill="#B55B52"/>
<path d="M110.913 350.919L118.22 351.305L122.661 337L115.353 336.613L110.913 350.919Z" fill="#B55B52"/>
<path d="M117.997 350.727L111.112 349.236C110.862 349.182 110.607 349.309 110.5 349.542L108.11 354.727C107.862 355.265 108.19 355.896 108.771 356.011C111.183 356.49 112.382 356.602 115.409 357.257C117.272 357.66 121.476 358.685 124.049 359.242C126.565 359.787 127.508 357.328 126.505 356.87C122.007 354.815 120.128 353.005 118.91 351.319C118.691 351.016 118.364 350.807 117.997 350.727Z" fill="#263238"/>
<path d="M163.529 352.193H156.682C156.426 352.193 156.204 352.371 156.148 352.621L154.909 358.194C154.781 358.772 155.219 359.319 155.811 359.309C158.281 359.267 161.85 359.122 164.955 359.122C168.585 359.122 171.72 359.32 175.977 359.32C178.551 359.32 179.265 356.718 178.188 356.482C173.283 355.409 169.278 355.294 165.039 352.681C164.579 352.397 164.07 352.193 163.529 352.193Z" fill="#263238"/>
<path d="M135.725 139.612C130.28 142.201 128.8 157.896 128.8 157.896L142.27 164.12C142.27 164.12 145.613 159.195 145.869 151.451C146.137 143.338 141.292 136.965 135.725 139.612Z" fill="#263238"/>
<path opacity="0.4" d="M143.032 149.291C140.6 153.066 140.83 158.907 141.672 163.843L142.267 164.122C142.267 164.122 145.614 159.191 145.871 151.449C145.886 150.965 145.884 150.484 145.867 150.016L143.032 149.291Z" fill="black"/>
<path d="M173.313 139.233C173.313 139.233 179.987 146.771 173.684 193.428C163.579 193.428 145.064 193.428 140.147 193.428C139.916 188.28 143.151 163.167 138.185 138.91C138.185 138.91 143.934 137.756 149.412 137.492C153.697 137.286 159.901 137.149 163.668 137.492C168.635 137.946 173.313 139.233 173.313 139.233Z" fill="#407BFF"/>
<path opacity="0.6" d="M173.313 139.233C173.313 139.233 179.987 146.771 173.684 193.428C163.579 193.428 145.064 193.428 140.147 193.428C139.916 188.28 143.151 163.167 138.185 138.91C138.185 138.91 143.934 137.756 149.412 137.492C153.697 137.286 159.901 137.149 163.668 137.492C168.635 137.946 173.313 139.233 173.313 139.233Z" fill="#FAFAFA"/>
<path opacity="0.2" d="M176.244 153.493L176.116 153.382L169.446 149.818C168.768 160.088 173.359 166.526 176.09 169.342C176.466 162.762 176.457 157.572 176.244 153.493Z" fill="black"/>
<path opacity="0.2" d="M164.628 338.402L164.259 345.887H157.041L157.41 338.402H164.628Z" fill="black"/>
<path opacity="0.2" d="M115.351 336.617L122.661 337.004L120.368 344.377L113.058 343.991L115.351 336.617Z" fill="black"/>
<path d="M148.199 116.778C149.81 122.789 150.447 126.389 154.157 128.888C159.736 132.647 166.683 128.333 166.9 121.962C167.096 116.228 164.428 107.362 157.978 106.15C151.623 104.957 146.588 110.767 148.199 116.778Z" fill="#B55B52"/>
<path d="M161.787 193.428C161.787 193.428 154.671 241.345 150.765 259.297C146.487 278.955 123.549 343.995 123.549 343.995L112.325 341.565C112.325 341.565 126.709 288.562 130.299 261.079C131.7 250.354 133.391 233.066 135.531 218.652C137.603 204.693 140.147 193.428 140.147 193.428H161.787Z" fill="#263238"/>
<path d="M126.236 340.247C126.284 340.257 124.144 344.306 124.144 344.306L111.516 341.572L112.581 337.776L126.236 340.247Z" fill="#407BFF"/>
<path opacity="0.6" d="M126.236 340.247C126.284 340.257 124.144 344.306 124.144 344.306L111.516 341.572L112.581 337.776L126.236 340.247Z" fill="white"/>
<path opacity="0.6" d="M157.29 210.5C149.062 212.113 149.933 242.796 150.923 258.578C153.296 247.423 156.769 225.957 159.142 210.722C158.596 210.449 157.981 210.364 157.29 210.5Z" fill="black"/>
<path d="M173.684 193.428C173.684 193.428 177.031 240.308 176.349 259.429C175.64 279.317 166.21 344.438 166.21 344.438H155.588C155.588 344.438 155.198 280.479 154.726 260.947C154.211 239.653 151.64 193.428 151.64 193.428H173.684Z" fill="#263238"/>
<path d="M168.253 340.207C168.302 340.207 167.654 344.617 167.654 344.617H154.733L154.384 340.681L168.253 340.207Z" fill="#407BFF"/>
<path opacity="0.6" d="M168.253 340.207C168.302 340.207 167.654 344.617 167.654 344.617H154.733L154.384 340.681L168.253 340.207Z" fill="white"/>
<path d="M169.399 148.015C169.399 160.596 176.094 165.776 176.094 165.776L186.976 155.138C186.976 155.138 183.276 148.763 178.188 142.911C171.901 135.681 169.399 139.925 169.399 148.015Z" fill="#263238"/>
<path opacity="0.2" d="M166.519 124.239C166.243 125.01 165.518 126.317 163.697 126.838C161.041 127.598 161.006 129.849 161.006 129.849L161.039 129.891C163.573 129.054 165.683 126.96 166.519 124.239Z" fill="black"/>
<path d="M163.698 104.831C165.94 102.004 162.491 101.869 162.491 101.869C163.387 98.494 159.353 100.311 159.353 100.311C156.931 96.973 155.565 101.035 155.565 101.035C153.053 98.207 152.591 102.829 152.591 102.829C150.072 99.242 148.789 104.416 148.789 104.416C146.469 100.691 145.049 105.544 145.049 105.544C140.259 103.829 142.536 108.807 142.536 108.807C138.447 108.922 141.727 112.085 141.727 112.085C136.829 112.097 141.148 114.902 141.148 114.902C137.258 117.454 142.141 118.141 142.141 118.141C138.967 123.104 144.417 121.263 144.417 121.263C142.209 126.175 147.105 124.011 147.105 124.011C146.787 128.751 149.525 127.461 150.841 126.583C151.095 127.538 151.569 128.549 152.449 128.664C154.157 128.887 154.489 125.663 154.489 125.663C154.489 125.663 156.074 126.896 157.403 126.228C158.732 125.56 158.231 123.869 158.231 123.869C158.231 123.869 159.248 124.628 160.18 123.904C160.75 123.461 160.753 120.278 160.026 119.159L162.629 118.14C162.629 118.14 164.561 117.868 163.698 115.321C162.836 112.775 163.567 110.764 163.567 110.764C166.505 109.387 164.095 107.731 164.095 107.731C167.492 105.53 163.698 104.831 163.698 104.831Z" fill="#263238"/>
<path d="M158.425 117.03C158.834 118.608 159.871 119.964 160.955 120.771C162.587 121.985 163.805 120.79 163.689 118.944C163.585 117.282 162.61 114.648 160.81 114.155C159.038 113.669 157.958 115.226 158.425 117.03Z" fill="#B55B52"/>
</svg>
