<svg width="859" height="317" viewBox="0 0 859 317" fill="none" xmlns="http://www.w3.org/2000/svg">
<g clip-path="url(#clip0_1_3)">
<path fill-rule="evenodd" clip-rule="evenodd" d="M133.75 254.18L194.18 272.83L137.4 301.26L136.28 286.63C98.74 287.56 59.86 287.37 25.52 272.17C18.52 269.06 11.59 265.23 6.52 259.43C1.45 253.63 -1.4 245.53 0.599999 238.11C2.6 230.69 8.6 225.69 14.34 221.22C15.64 220.22 16.52 218.91 17.89 218C19.59 216.86 21.37 215.82 23.14 214.8C26.6933 212.76 30.33 210.887 34.05 209.18C49.05 202.27 65.05 197.9 81.12 194.25C87.12 192.9 93.12 191.64 99.12 190.39L103.94 198.6C81 203.73 57.78 209 37.29 220.46C31.68 223.59 26.23 227.25 22.19 232.24C19.9 235.05 18.05 238.44 18.08 242.07C18.13 248.07 23.18 252.79 28.29 255.95C36.66 261.14 46.17 264.25 55.78 266.41C81.65 272.22 108.52 271.41 134.97 269.64L133.75 254.18Z" fill="#3CD278"/>
<path fill-rule="evenodd" clip-rule="evenodd" d="M259.32 233.13C256.53 237.64 254.71 240.62 250.82 243.74C247.085 247.338 242.785 250.297 238.09 252.5C228.09 257.57 218.09 261.16 207.98 264.76C217.96 261.226 227.655 256.933 236.98 251.92C241.068 249.251 244.991 246.339 248.73 243.2C251.515 240.164 254.021 236.884 256.22 233.4C258.08 229.75 257.82 226.29 257.5 222.02C256.19 219.3 252.81 216.02 250.5 212.64C243.92 207.5 235.42 204.01 224.81 201.21C214.819 198.409 204.63 196.37 194.33 195.11C183.17 193.89 178.33 193.35 167.26 193.43C168.75 191.43 170.26 189.33 171.85 187.23C181.2 187.84 185.94 188.93 196.01 190.02C206.54 192.02 216.95 193.38 227.66 197.51C232.83 198.44 237.15 200.92 241.55 203.51C246.87 205.11 250.18 208.51 254.49 210.95C256.89 214.25 259.21 217.58 260.49 221.76C261.126 223.628 261.35 225.61 261.148 227.573C260.946 229.535 260.323 231.431 259.32 233.13Z" fill="#3CD278"/>
<path d="M217.58 123.5C162.16 187.32 127.84 243.33 127.84 243.33C99 150.53 24.67 102.2 24.67 102.2C93.07 114.06 134.67 160.52 134.67 160.52C198.41 85.89 289.63 17.57 348.55 0C348.55 0 270.65 62.39 217.58 123.5Z" fill="#3CD278"/>
<path d="M296.042 140.345V123.394H397.052V140.345H356.33V253.91H336.701V140.345H296.042ZM433.011 256.077C426.808 256.077 421.2 254.93 416.187 252.635C411.174 250.299 407.201 246.921 404.27 242.503C401.381 238.084 399.936 232.667 399.936 226.252C399.936 220.729 400.998 216.183 403.123 212.614C405.247 209.045 408.115 206.22 411.726 204.138C415.337 202.056 419.373 200.484 423.834 199.422C428.295 198.36 432.841 197.553 437.472 197C443.335 196.321 448.094 195.768 451.748 195.343C455.401 194.876 458.057 194.132 459.714 193.113C461.371 192.093 462.199 190.436 462.199 188.142V187.696C462.199 182.13 460.627 177.818 457.483 174.759C454.382 171.7 449.751 170.17 443.59 170.17C437.175 170.17 432.119 171.594 428.423 174.44C424.769 177.244 422.241 180.367 420.839 183.808L402.931 179.73C405.056 173.782 408.157 168.981 412.236 165.327C416.357 161.631 421.094 158.954 426.447 157.297C431.8 155.598 437.43 154.748 443.335 154.748C447.244 154.748 451.386 155.215 455.762 156.15C460.181 157.042 464.302 158.699 468.126 161.121C471.992 163.543 475.157 167.005 477.621 171.509C480.086 175.97 481.318 181.769 481.318 188.907V253.91H462.709V240.527H461.944C460.712 242.991 458.864 245.413 456.4 247.792C453.936 250.171 450.77 252.147 446.904 253.719C443.038 255.291 438.407 256.077 433.011 256.077ZM437.154 240.782C442.422 240.782 446.925 239.741 450.664 237.659C454.445 235.577 457.313 232.858 459.267 229.502C461.264 226.103 462.263 222.471 462.263 218.604V205.986C461.583 206.666 460.266 207.303 458.312 207.898C456.4 208.45 454.212 208.939 451.748 209.364C449.283 209.746 446.883 210.107 444.546 210.447C442.209 210.744 440.255 210.999 438.683 211.212C434.987 211.679 431.609 212.465 428.55 213.57C425.534 214.674 423.112 216.268 421.285 218.349C419.501 220.389 418.609 223.108 418.609 226.507C418.609 231.223 420.351 234.791 423.834 237.213C427.318 239.592 431.758 240.782 437.154 240.782ZM580.049 179.921L562.779 182.98C562.057 180.771 560.909 178.668 559.337 176.671C557.808 174.674 555.726 173.038 553.092 171.764C550.458 170.489 547.165 169.852 543.214 169.852C537.818 169.852 533.315 171.063 529.704 173.484C526.092 175.864 524.287 178.944 524.287 182.725C524.287 185.996 525.498 188.631 527.919 190.627C530.341 192.624 534.25 194.26 539.645 195.535L555.195 199.103C564.202 201.185 570.915 204.393 575.333 208.726C579.752 213.06 581.961 218.689 581.961 225.614C581.961 231.478 580.262 236.703 576.863 241.292C573.507 245.838 568.812 249.407 562.779 251.998C556.788 254.59 549.842 255.886 541.94 255.886C530.978 255.886 522.035 253.549 515.11 248.875C508.185 244.16 503.936 237.468 502.364 228.801L520.782 225.997C521.929 230.798 524.287 234.43 527.856 236.894C531.424 239.316 536.077 240.527 541.812 240.527C548.058 240.527 553.05 239.231 556.788 236.64C560.527 234.005 562.396 230.798 562.396 227.016C562.396 223.958 561.249 221.387 558.955 219.305C556.703 217.224 553.241 215.652 548.567 214.589L531.998 210.957C522.863 208.875 516.108 205.561 511.732 201.015C507.399 196.469 505.232 190.712 505.232 183.745C505.232 177.967 506.846 172.911 510.075 168.577C513.304 164.244 517.765 160.866 523.458 158.444C529.151 155.98 535.673 154.748 543.023 154.748C553.602 154.748 561.929 157.042 568.005 161.631C574.08 166.177 578.095 172.274 580.049 179.921ZM620.437 220.707L620.31 197.446H623.624L662.626 156.023H685.441L640.958 203.182H637.963L620.437 220.707ZM602.912 253.91V123.394H621.967V253.91H602.912ZM664.729 253.91L629.678 207.388L642.806 194.069L688.117 253.91H664.729ZM731.293 256.077C725.091 256.077 719.482 254.93 714.469 252.635C709.456 250.299 705.483 246.921 702.552 242.503C699.663 238.084 698.218 232.667 698.218 226.252C698.218 220.729 699.28 216.183 701.405 212.614C703.529 209.045 706.397 206.22 710.008 204.138C713.619 202.056 717.656 200.484 722.117 199.422C726.578 198.36 731.124 197.553 735.754 197C741.617 196.321 746.376 195.768 750.03 195.343C753.683 194.876 756.339 194.132 757.996 193.113C759.653 192.093 760.481 190.436 760.481 188.142V187.696C760.481 182.13 758.909 177.818 755.765 174.759C752.664 171.7 748.033 170.17 741.872 170.17C735.457 170.17 730.401 171.594 726.705 174.44C723.051 177.244 720.523 180.367 719.121 183.808L701.214 179.73C703.338 173.782 706.439 168.981 710.518 165.327C714.639 161.631 719.376 158.954 724.729 157.297C730.083 155.598 735.712 154.748 741.617 154.748C745.526 154.748 749.669 155.215 754.045 156.15C758.463 157.042 762.584 158.699 766.408 161.121C770.274 163.543 773.439 167.005 775.904 171.509C778.368 175.97 779.6 181.769 779.6 188.907V253.91H760.991V240.527H760.226C758.994 242.991 757.146 245.413 754.682 247.792C752.218 250.171 749.053 252.147 745.186 253.719C741.32 255.291 736.689 256.077 731.293 256.077ZM735.436 240.782C740.704 240.782 745.208 239.741 748.946 237.659C752.728 235.577 755.595 232.858 757.55 229.502C759.547 226.103 760.545 222.471 760.545 218.604V205.986C759.865 206.666 758.548 207.303 756.594 207.898C754.682 208.45 752.494 208.939 750.03 209.364C747.566 209.746 745.165 210.107 742.828 210.447C740.492 210.744 738.537 210.999 736.965 211.212C733.269 211.679 729.891 212.465 726.832 213.57C723.816 214.674 721.394 216.268 719.567 218.349C717.783 220.389 716.891 223.108 716.891 226.507C716.891 231.223 718.633 234.791 722.117 237.213C725.6 239.592 730.04 240.782 735.436 240.782ZM850.673 156.023V171.318H797.205V156.023H850.673ZM811.544 132.571H830.599V225.168C830.599 228.865 831.151 231.647 832.256 233.517C833.36 235.344 834.784 236.597 836.525 237.277C838.31 237.914 840.243 238.233 842.325 238.233C843.854 238.233 845.193 238.127 846.34 237.914C847.487 237.702 848.379 237.532 849.016 237.404L852.458 253.145C851.353 253.57 849.781 253.995 847.742 254.42C845.702 254.887 843.153 255.142 840.094 255.185C835.081 255.27 830.408 254.377 826.074 252.508C821.74 250.639 818.235 247.75 815.559 243.841C812.882 239.932 811.544 235.025 811.544 229.12V132.571Z" fill="white"/>
</g>
<defs>
<clipPath id="clip0_1_3">
<rect width="858.77" height="316.72" fill="white"/>
</clipPath>
</defs>
</svg>
