<svg id="Layer_1" data-name="Layer 1" xmlns="http://www.w3.org/2000/svg" viewBox="0 0 858.77 316.72"><defs><style>.cls-1,.cls-2{fill:#3cd278;}.cls-1{fill-rule:evenodd;}.cls-3{font-size:179.46px;fill:#383838;font-family:Inter-Medium, Inter;font-weight:500;letter-spacing:-0.07em;}.cls-4{letter-spacing:0em;}</style></defs><path class="cls-1" d="M133.75,254.18l60.43,18.65L137.4,301.26l-1.12-14.63c-37.54.93-76.42.74-110.76-14.46-7-3.11-13.93-6.94-19-12.74s-7.92-13.9-5.92-21.32,8-12.42,13.74-16.89c1.3-1,2.18-2.31,3.55-3.22,1.7-1.14,3.48-2.18,5.25-3.2q5.33-3.06,10.91-5.62c15-6.91,31-11.28,47.07-14.93,6-1.35,12-2.61,18-3.86l4.82,8.21C81,203.73,57.78,209,37.29,220.46c-5.61,3.13-11.06,6.79-15.1,11.78-2.29,2.81-4.14,6.2-4.11,9.83.05,6,5.1,10.72,10.21,13.88,8.37,5.19,17.88,8.3,27.49,10.46,25.87,5.81,52.74,5,79.19,3.23Z"/><path class="cls-1" d="M259.32,233.13c-2.79,4.51-4.61,7.49-8.5,10.61a47.33,47.33,0,0,1-12.73,8.76c-10,5.07-20,8.66-30.11,12.26a207.53,207.53,0,0,0,29-12.84,121.92,121.92,0,0,0,11.75-8.72,68.92,68.92,0,0,0,7.49-9.8c1.86-3.65,1.6-7.11,1.28-11.38-1.31-2.72-4.69-6-7-9.38-6.58-5.14-15.08-8.63-25.69-11.43a205.26,205.26,0,0,0-30.48-6.1c-11.16-1.22-16-1.76-27.07-1.68,1.49-2,3-4.1,4.59-6.2,9.35.61,14.09,1.7,24.16,2.79,10.53,2,20.94,3.36,31.65,7.49,5.17.93,9.49,3.41,13.89,6,5.32,1.6,8.63,5,12.94,7.44,2.4,3.3,4.72,6.63,6,10.81A13.69,13.69,0,0,1,259.32,233.13Z"/><path class="cls-2" d="M217.58,123.5c-55.42,63.82-89.74,119.83-89.74,119.83C99,150.53,24.67,102.2,24.67,102.2c68.4,11.86,110,58.32,110,58.32C198.41,85.89,289.63,17.57,348.55,0,348.55,0,270.65,62.39,217.58,123.5Z"/><text class="cls-3" transform="translate(288.14 259.37)">T<tspan class="cls-4" x="103.56" y="0">askat</tspan></text></svg>